<svg xmlns="http://www.w3.org/2000/svg" viewBox="0 0 512 512"><path d="M263.454 69.995c-3.593-4.574-11.315-4.574-14.907 0L144.25 202.736a9.47 9.47 0 00-1.074 10 9.485 9.485 0 008.528 5.338h47.407v208.593c0 5.236 4.245 9.481 9.482 9.481h94.815c5.236 0 9.482-4.245 9.482-9.481V218.074h47.407c3.63 0 6.94-2.074 8.528-5.338a9.47 9.47 0 00-1.074-10L263.454 69.995zm39.953 129.116a9.482 9.482 0 00-9.482 9.482v208.593h-75.852V208.593a9.482 9.482 0 00-9.482-9.482h-37.38L256 91.199l84.787 107.912h-37.38z"/><path d="M256 0C114.843 0 0 114.843 0 256s114.843 256 256 256 256-114.843 256-256S397.157 0 256 0zm0 493.037C125.296 493.037 18.963 386.704 18.963 256S125.296 18.963 256 18.963 493.037 125.296 493.037 256 386.704 493.037 256 493.037z"/></svg>