<svg width="109" height="111" fill="none" xmlns="http://www.w3.org/2000/svg"><g clip-path="url(#clip0_2392_715)"><g opacity=".45" filter="url(#filter0_f_2392_715)"><path fill-rule="evenodd" clip-rule="evenodd" d="M39.55 9.733c-3.553.258-6.992.941-10.294 2.118-3.303 1.176-6.399 2.822-9.314 4.869-.956.69-.997 2.1-.103 2.867l6.812 5.718a.198.198 0 01-.009.31c-2.364 1.85-2.802 5.301-.986 7.678.648.84.873 2.069.272 2.943-4.34 6.309-7.086 17.106-3.628 26.81C27.24 76.91 40.578 73.98 50.175 70.56c9.598-3.42 21.784-9.584 16.844-23.447-3.516-9.867-12.477-16.373-19.768-18.478-1.019-.294-1.617-1.39-1.643-2.45-.096-2.99-2.618-5.387-5.654-5.313a.177.177 0 01-.18-.21l1.668-8.772c.207-1.16-.716-2.226-1.893-2.156z" fill="url(#paint0_linear_2392_715)"/></g><path fill-rule="evenodd" clip-rule="evenodd" d="M61.218 36.41c-10.51 2.83-23.398 11.92-28.64 25.546-1.417 3.683-1.96 6.999-1.815 9.99-3.092-1.486-5.696-4.247-7.354-8.9-3.771-10.584-.162-22.47 4.845-28.412a5.567 5.567 0 01-1.489-1.341c-1.816-2.377-1.378-5.828.986-7.679l.2-.149-7.003-5.879c-.893-.767-.853-2.177.103-2.866 2.915-2.047 6.011-3.693 9.314-4.87 3.302-1.176 6.74-1.86 10.293-2.117 1.177-.07 2.1.996 1.893 2.156l-1.709 8.99.221-.008c3.036-.074 5.558 2.323 5.654 5.312a5.51 5.51 0 01-.319 1.983c4.61.857 10.25 3.707 14.82 8.244z" fill="url(#paint1_linear_2392_715)"/><mask id="a" fill="#fff"><path fill-rule="evenodd" clip-rule="evenodd" d="M100.634 20.39c-4.074-3.015-8.42-5.466-13.077-7.258-4.656-1.791-9.525-2.885-14.57-3.378-1.67-.142-3.022 1.343-2.768 3l2.109 12.838-.358-.025c-4.269-.194-7.94 3.126-8.184 7.376a7.926 7.926 0 00.364 2.83c-10.915 1.775-25.83 11.26-31.571 26.183-7.52 19.547 9.597 28.75 23.13 33.956 13.532 5.207 32.404 9.85 39.924-9.697 5.846-15.193.965-32.078-5.895-40.604.8-.46 1.548-1.07 2.18-1.845 2.669-3.317 2.169-8.242-1.178-10.977a33.07 33.07 0 00-.242-.194l10.181-8.122c1.299-1.06 1.291-3.067-.045-4.082z"/></mask><path fill-rule="evenodd" clip-rule="evenodd" d="M100.634 20.39c-4.074-3.015-8.42-5.466-13.077-7.258-4.656-1.791-9.525-2.885-14.57-3.378-1.67-.142-3.022 1.343-2.768 3l2.109 12.838-.358-.025c-4.269-.194-7.94 3.126-8.184 7.376a7.926 7.926 0 00.364 2.83c-10.915 1.775-25.83 11.26-31.571 26.183-7.52 19.547 9.597 28.75 23.13 33.956 13.532 5.207 32.404 9.85 39.924-9.697 5.846-15.193.965-32.078-5.895-40.604.8-.46 1.548-1.07 2.18-1.845 2.669-3.317 2.169-8.242-1.178-10.977a33.07 33.07 0 00-.242-.194l10.181-8.122c1.299-1.06 1.291-3.067-.045-4.082z" fill="url(#paint2_linear_2392_715)"/><path d="M87.557 13.132l.718-1.866-.718 1.866zm13.077 7.259l1.211-1.592-.011-.008-.01-.008-1.19 1.608zM72.988 9.754l.194-1.99-.013-.002-.013-.001-.168 1.993zm-2.77 3l-1.977.302.002.011.002.01 1.974-.323zm2.11 12.838l-.147 1.994 2.532.186-.412-2.505-1.973.325zm-.358-.025l.129-1.996-.02-.001h-.018l-.091 1.997zm-8.184 7.376l-1.997-.114v.008l1.997.106zm.364 2.83l.321 1.974 2.288-.372-.703-2.209-1.906.607zM32.58 61.956l1.866.718-1.866-.718zm23.13 33.956l.718-1.866-.719 1.866zm39.924-9.697l-1.866-.718 1.866.718zm-5.895-40.604l-.995-1.735-2.031 1.164 1.467 1.824 1.558-1.253zm2.18-1.845l1.55 1.265.004-.005.005-.006-1.559-1.254zM90.74 32.79l1.266-1.549-.008-.007-1.258 1.556zm-.242-.194l-1.247-1.563-1.964 1.567 1.967 1.562 1.244-1.566zm10.181-8.122l1.247 1.563.009-.007.008-.006-1.264-1.55zM86.839 15c4.473 1.72 8.662 4.081 12.606 7l2.379-3.216c-4.205-3.112-8.709-5.655-13.549-7.517L86.839 15zm-14.046-3.255c4.883.478 9.573 1.534 14.046 3.255l1.436-3.733c-4.84-1.862-9.886-2.993-15.093-3.503l-.39 3.981zm-.598.707a.603.603 0 01.624-.704l.337-3.986c-2.997-.254-5.358 2.396-4.915 5.295l3.954-.605zm2.106 12.816L72.192 12.43l-3.947.649 2.11 12.838 3.946-.649zm-2.46 2.296l.34.023.293-3.989a22.94 22.94 0 00-.376-.026l-.257 3.992zm-6.058 5.494c.18-3.156 2.921-5.637 6.096-5.492l.182-3.996c-5.363-.244-9.966 3.916-10.272 9.26l3.994.228zm.273 2.11a5.924 5.924 0 01-.273-2.118l-3.994-.212a9.924 9.924 0 00.456 3.542l3.811-1.213zM63.829 33.8C52.3 35.674 36.74 45.572 30.712 61.238l3.733 1.436c5.457-14.182 19.726-23.252 30.026-24.927l-.642-3.948zM30.712 61.238c-1.994 5.182-2.402 9.813-1.554 13.94.847 4.123 2.916 7.589 5.628 10.498 5.364 5.752 13.404 9.487 20.204 12.103l1.437-3.733c-6.733-2.59-14.018-6.061-18.716-11.098-2.318-2.487-3.965-5.312-4.635-8.575-.67-3.258-.397-7.108 1.37-11.7l-3.734-1.435zm24.278 36.54c6.8 2.617 15.27 5.235 23.107 4.561 3.962-.341 7.82-1.526 11.213-4.018 3.395-2.495 6.196-6.205 8.19-11.387l-3.733-1.437c-1.767 4.592-4.145 7.63-6.826 9.6-2.684 1.972-5.8 2.966-9.187 3.257-6.862.59-14.595-1.718-21.327-4.308l-1.437 3.733zM97.5 86.935c6.134-15.943 1.043-33.57-6.204-42.577l-3.117 2.507c6.473 8.046 11.145 24.19 5.588 38.633l3.733 1.437zM90.37 42.5a5.84 5.84 0 01-1.627 1.375l1.99 3.47a9.839 9.839 0 002.735-2.315l-3.099-2.53zm-.896-8.164c2.5 2.043 2.863 5.718.886 8.176l3.117 2.507c3.36-4.176 2.723-10.352-1.471-13.78l-2.532 3.097zm-.22-.176c.077.06.153.122.229.183l2.514-3.11c-.085-.07-.17-.137-.255-.205l-2.488 3.132zm10.177-11.25l-10.18 8.123 2.495 3.126 10.18-8.122-2.495-3.127zm-.007-.926a.603.603 0 01-.01.94l2.529 3.1c2.273-1.855 2.297-5.404-.098-7.224l-2.421 3.184z" fill="url(#paint3_linear_2392_715)" mask="url(#a)"/><g opacity=".3" filter="url(#filter1_f_2392_715)"><path fill-rule="evenodd" clip-rule="evenodd" d="M30.761 71.94c6.12 2.95 14.154.892 20.535-1.382 9.598-3.42 21.783-9.584 16.843-23.447-1.498-4.205-3.986-7.8-6.912-10.704-10.512 2.827-23.406 11.92-28.65 25.549-1.416 3.68-1.958 6.994-1.816 9.983z" fill="url(#paint4_linear_2392_715)"/></g><path d="M71.404 71.901c-1.002 2.603-3.545 4.28-6.332 4.252l-.04-.016-.939 2.437a2.192 2.192 0 01-2.86 1.271 2.192 2.192 0 01-1.271-2.86l.938-2.438c-1.19-.979-2.177-2.355-2.784-4.106-.353-1.18.223-2.428 1.418-2.822 1.153-.41 2.386.206 2.796 1.36.43 1.351 1.214 2.27 2.082 2.603.248.096.47.134.75.147 2.45.041 3.26-3.663.945-4.553a6.63 6.63 0 01-3.813-8.582c.954-2.479 3.265-4.293 6.357-4.194l.954-2.479a2.192 2.192 0 012.86-1.271 2.192 2.192 0 011.271 2.86l-.953 2.48c.93.784 1.757 1.719 2.358 2.993.482 1.087.015 2.425-1.088 2.95-1.103.524-2.425.015-2.949-1.088-.432-.972-1.074-1.646-1.818-1.932a1.795 1.795 0 00-.848-.137c-2.4.073-2.972 3.41-.741 4.268 3.43 1.32 5.026 5.428 3.707 8.857z" fill="url(#paint5_linear_2392_715)"/></g><defs><linearGradient id="paint2_linear_2392_715" x1="84.355" y1="11.81" x2="58.572" y2="96.676" gradientUnits="userSpaceOnUse"><stop stop-color="#403F3F"/><stop offset="1" stop-color="#161616"/></linearGradient><linearGradient id="paint3_linear_2392_715" x1="84.355" y1="11.81" x2="58.572" y2="96.676" gradientUnits="userSpaceOnUse"><stop stop-color="#919191" stop-opacity=".08"/><stop offset="1" stop-color="#757272"/></linearGradient><linearGradient id="paint0_linear_2392_715" x1="63.999" y1="32.11" x2="15.841" y2="49.271" gradientUnits="userSpaceOnUse"><stop offset=".146" stop-color="#4f93ce"/><stop offset="1" stop-color="#4f93ce"/></linearGradient><linearGradient id="paint1_linear_2392_715" x1="60.591" y1="-14.838" x2="-2.995" y2="18.623" gradientUnits="userSpaceOnUse"><stop stop-color="#4f93ce"/><stop offset="1" stop-color="#004097"/></linearGradient><linearGradient id="paint4_linear_2392_715" x1="97.755" y1="-15.445" x2="-6.497" y2="1.049" gradientUnits="userSpaceOnUse"><stop stop-color="#4f93ce"/><stop offset="1" stop-color="#4f93ce"/></linearGradient><linearGradient id="paint5_linear_2392_715" x1="69.022" y1="50.176" x2="80.556" y2="68.492" gradientUnits="userSpaceOnUse"><stop stop-color="#F8FBFA"/><stop offset="1" stop-color="#6F6F6F" stop-opacity=".51"/></linearGradient><filter id="filter0_f_2392_715" x="5.196" y="-4.27" width="76.959" height="91.673" filterUnits="userSpaceOnUse" color-interpolation-filters="sRGB"><feFlood flood-opacity="0" result="BackgroundImageFix"/><feBlend in="SourceGraphic" in2="BackgroundImageFix" result="shape"/><feGaussianBlur stdDeviation="7" result="effect1_foregroundBlur_2392_715"/></filter><filter id="filter1_f_2392_715" x="22.739" y="28.407" width="54.537" height="52.995" filterUnits="userSpaceOnUse" color-interpolation-filters="sRGB"><feFlood flood-opacity="0" result="BackgroundImageFix"/><feBlend in="SourceGraphic" in2="BackgroundImageFix" result="shape"/><feGaussianBlur stdDeviation="4" result="effect1_foregroundBlur_2392_715"/></filter><clipPath id="clip0_2392_715"><path fill="#fff" transform="rotate(.699 .666 109.223)" d="M0 0h107.329v109.225H0z"/></clipPath></defs></svg>