<svg xmlns="http://www.w3.org/2000/svg" viewBox="0 0 496 496"><path d="M480 172.664V65.304l4.032 2.304 7.936-13.888L432 19.456 372.032 53.72l7.936 13.888L384 65.304v75.36h16V56.16l32-18.288 32 18.288v116.504H32V72.16l32-18.288L96 72.16v52.504h16v-43.36l4.032 2.304 7.936-13.888L64 35.456 4.032 69.72l7.936 13.888L16 81.304v91.36H0v256h496v-256h-16zm-464 16h31.192C44 204.312 31.648 216.664 16 219.856v-31.192zm0 224v-31.192c15.648 3.192 28 15.544 31.192 31.192H16zm464 0h-31.192c3.192-15.648 15.544-28 31.192-31.192v31.192zm0-47.36c-24.472 3.528-43.832 22.888-47.36 47.36H63.36c-3.528-24.472-22.888-43.832-47.36-47.36v-129.28c24.472-3.528 43.832-22.888 47.36-47.36h369.28c3.528 24.472 22.888 43.832 47.36 47.36v129.28zm0-145.448c-15.648-3.192-28-15.544-31.192-31.192H480v31.192z"/><path d="M248 204.664c-52.936 0-96 43.064-96 96s43.064 96 96 96 96-43.064 96-96-43.064-96-96-96zm0 176c-44.112 0-80-35.888-80-80s35.888-80 80-80 80 35.888 80 80-35.888 80-80 80zm-248 64h496v16H0zm0 32h496v16H0zm424-336h16v16h-16zm0-80h16v64h-16zm-368 16h16v80H56zm144-25.872v89.872h16V41.192l32-19.2 32 19.2v99.472h16V50.792l27.88 16.728 8.24-13.712L248 3.336l-84.12 50.472 8.24 13.712z"/><path d="M240 44.664h16v112h-16zm-144 96h16v16H96zm164 112h-4v-16h-16v16h-4c-15.44 0-28 12.56-28 28s12.56 28 28 28h24c6.616 0 12 5.384 12 12s-5.384 12-12 12h-24c-6.616 0-12-5.384-12-12v-4h-16v4c0 15.44 12.56 28 28 28h4v16h16v-16h4c15.44 0 28-12.56 28-28s-12.56-28-28-28h-24c-6.616 0-12-5.384-12-12s5.384-12 12-12h24c6.616 0 12 5.384 12 12v4h16v-4c0-15.44-12.56-28-28-28z"/></svg>