<svg viewBox="-7 0 479 480" xmlns="http://www.w3.org/2000/svg"><path d="M200.5 216c-13.254 0-24 10.746-24 24s10.746 24 24 24 24-10.746 24-24c-.016-13.25-10.75-23.984-24-24zm0 32a8 8 0 118-8 8.005 8.005 0 01-8 8zm0 0"/><path d="M461.086 145.445l-80-56A7.997 7.997 0 00368.5 96v16h-48V8a8 8 0 00-8-8H8.5a15.42 15.42 0 00-2.664.54 7.794 7.794 0 00-1.758.968c-.27.183-.941.62-1.004.68-.715.8-1.344 1.675-1.883 2.605A7.89 7.89 0 00.5 8v432a7.96 7.96 0 00.602 2.98 15.87 15.87 0 001.593 2.461c.293.274.606.524.938.75.437.372.918.696 1.43.961.773.325 1.57.582 2.382.778l240 32a8.013 8.013 0 006.715-2.27 8.013 8.013 0 002.34-5.66v-24h56a8 8 0 008-8V192h48v16a7.994 7.994 0 004.305 7.094 7.995 7.995 0 008.28-.54l80-56a7.998 7.998 0 000-13.109zM240.5 462.863l-224-29.867V17.136l224 29.868zm64-30.863h-48V40a8.003 8.003 0 00-6.945-7.93L129.027 16H304.5v96h-24a8 8 0 00-8 8v64a8 8 0 008 8h24zm-16-256v-48h80v48zm96 16.637v-81.274L442.547 152zm0 0"/><path d="M184.5 112a8 8 0 008-8V72a7.997 7.997 0 00-6.867-7.918l-112-16a8.004 8.004 0 00-6.375 1.875A8.003 8.003 0 0064.5 56v32a7.997 7.997 0 006.867 7.918l112 16a7.81 7.81 0 001.133.082zm-8-17.223l-96-13.715v-15.84l96 13.716zm0 0"/></svg>