<svg xmlns="http://www.w3.org/2000/svg" viewBox="0 0 507.482 507.482"><path d="M123.472 123.508l-24.288-20.832A232.742 232.742 0 0078.8 130.34l27.2 17.008a196.522 196.522 0 0117.472-23.84zm44.64-38.688l-17.216-26.992a231.918 231.918 0 00-27.584 20.528l20.96 24.16a201.086 201.086 0 0123.84-17.696z"/><path d="M482.815 149.716c-39.367-78.501-119.684-128.045-207.503-128a230.713 230.713 0 00-94.144 19.872l12.976 29.248c101.002-44.714 219.128.916 263.842 101.918s-.916 219.128-101.918 263.842a200.012 200.012 0 01-80.756 17.12c-75.716.332-145.02-42.46-178.64-110.304l-28.624 14.304C125.486 472.251 264.897 518.537 379.432 461.1c114.535-57.438 160.821-196.849 103.383-311.384z"/><path d="M96 210.404L76.912 229.46a194.55 194.55 0 0111.2-46.256c1.232-3.28 2.56-6.528 3.952-9.744l-29.344-12.8c-1.6 3.696-3.2 7.44-4.528 11.2a226.411 226.411 0 00-13.904 60.224l-21.664-21.68L0 233.028l59.312 59.312 59.312-59.312L96 210.404zm155.312-100.688v160h96v-32h-64v-128zm128 128h32v32h-32zm-128 128h32v32h-32z"/></svg>