<svg xmlns="http://www.w3.org/2000/svg" viewBox="0 0 336.034 336.034"><path d="M328.777 156.946l-143.24-143.28c-9.69-9.641-25.35-9.641-35.04 0L7.257 156.946c-9.676 9.676-9.676 25.364 0 35.04s25.364 9.676 35.04 0l9.72-9.8v131.32c.432 9.218 8.219 16.362 17.44 16h47.52a4 4 0 004-4v-77.84c.003-25.979 21.066-47.037 47.046-47.034 25.975.003 47.031 21.059 47.034 47.034v77.92a4 4 0 004 4h47.44c9.221.362 17.008-6.782 17.44-16v-131.4l9.8 9.8c9.676 9.676 25.364 9.676 35.04 0s9.676-25.364 0-35.04zm-52.76 156.56a8.84 8.84 0 01-9.44 8h-43.52v-73.84c0-30.398-24.642-55.04-55.04-55.04s-55.04 24.642-55.04 55.04v73.92h-43.48a8.84 8.84 0 01-9.44-8v-139.4l108-108 108 108-.04 139.32zm47.16-127.2c-6.556 6.535-17.164 6.535-23.72 0l-16.64-16.6-112-112a4 4 0 00-5.64 0l-112 112-16.6 16.6c-6.55 6.55-17.17 6.55-23.72 0-6.55-6.55-6.55-17.17 0-23.72l143.16-143.24c6.565-6.513 17.155-6.513 23.72 0l143.24 143.24c6.579 6.512 6.651 17.12.16 23.72h.04z"/></svg>