<svg viewBox="-60 0 432 432" xmlns="http://www.w3.org/2000/svg"><path d="M184.035 208c-53.02 0-96 42.98-96 96s42.98 96 96 96 96-42.98 96-96c-.058-52.996-43.008-95.941-96-96zm0 176c-44.183 0-80-35.816-80-80s35.817-80 80-80c44.18 0 80 35.816 80 80-.05 44.164-35.84 79.953-80 80zm0 0"/><path d="M232.035 280c-.055-14.547-9.918-27.227-24-30.863V240h-16v8h-16v-8h-16v8h-8c-4.422 0-8 3.582-8 8v96c0 4.418 3.578 8 8 8h8v8h16v-8h16v8h16v-9.137a31.739 31.739 0 0023.153-23.496A31.742 31.742 0 00220.976 304a31.801 31.801 0 0011.058-24zm-16 48c0 8.836-7.164 16-16 16h-40v-32h40c8.836 0 16 7.164 16 16zm-56-32v-32h40c8.836 0 16 7.164 16 16s-7.164 16-16 16zm0 0"/><path d="M192.035 432v-.406c52.75-3.219 98.082-38.578 114.035-88.965 15.957-50.383-.754-105.39-42.035-138.39V112c0-61.855-50.144-112-112-112-61.86 0-112 50.145-112 112v99.2c-38.086 36-50.351 91.59-30.95 140.269C28.489 400.152 75.63 432.066 128.036 432zm104-128c0 61.855-50.144 112-112 112-61.86 0-112-50.145-112-112s50.14-112 112-112c61.828.066 111.934 50.172 112 112zm-168-128a125.85 125.85 0 00-32 4.16V112c0-30.93 25.07-56 56-56 30.926 0 56 25.07 56 56v66.336a127.589 127.589 0 00-24-2.336zm24-160c52.992.059 95.942 43.004 96 96v81.32a127.567 127.567 0 00-24-10.832V112c0-39.766-32.238-72-72-72-39.765 0-72 32.234-72 72v80c0 8.836-7.164 16-16 16h-8v-96c.055-52.996 43.004-95.941 96-96zm-136 288a111.926 111.926 0 0134.024-80h13.976c15.688-.055 29.02-11.477 31.485-26.969a111.565 111.565 0 0126.234-4.758c-40.55 22.543-65.7 65.286-65.719 111.68-.015 46.395 25.106 89.156 65.637 111.727C62.449 412.29 16.132 363.32 16.035 304zm0 0"/></svg>