<svg xmlns="http://www.w3.org/2000/svg" viewBox="0 0 512 512"><path d="M437.02 74.98C388.667 26.629 324.38 0 256 0S123.333 26.629 74.98 74.98C26.629 123.333 0 187.62 0 256s26.629 132.667 74.98 181.02C123.333 485.371 187.62 512 256 512s132.667-26.629 181.02-74.98C485.371 388.667 512 324.38 512 256s-26.629-132.667-74.98-181.02zm7.282 30.59c32.596 40.642 50.973 90.337 52.57 142.93h-40.985v-48.096c0-17.681-14.385-32.065-32.066-32.065h-40.158c-2.608-13.652-5.797-26.834-9.58-39.41a480.15 480.15 0 0070.219-23.359zm-180.8-90.082c27.376 3.457 53.452 25.753 74.114 63.684a7.5 7.5 0 0013.173-7.176c-11.773-21.612-25.362-38.698-40.137-50.795 43.492 10.036 83.415 32.041 115.761 64.386a247.404 247.404 0 017.633 7.996 464.821 464.821 0 01-64.623 21.049c-1.323-3.794-2.681-7.55-4.114-11.217a7.499 7.499 0 00-9.715-4.256 7.5 7.5 0 00-4.256 9.715 306.7 306.7 0 013.382 9.123c-29.761 6.314-60.231 9.728-91.218 10.197V15.488zm-.002 127.71c32.6-.479 64.648-4.114 95.936-10.864 3.493 11.499 6.493 23.525 8.967 36.005H263.5v-25.141zm-15-127.72v112.715c-30.971-.479-61.424-3.899-91.169-10.218 8.021-22.595 17.98-42.595 29.388-58.683C205.184 33.25 226.405 18.25 248.5 15.478zm0 127.717v25.144H143.597c2.479-12.464 5.506-24.521 9.013-36.029 31.272 6.754 63.306 10.396 95.89 10.885zM85.588 85.588C117.92 53.255 157.825 31.254 201.3 21.213c-9.446 7.757-18.433 17.578-26.816 29.401-12.66 17.854-23.417 39.466-31.949 63.968A464.823 464.823 0 0178 93.536a246.637 246.637 0 017.588-7.948zm-17.85 19.931a480.146 480.146 0 0070.167 23.367c-3.759 12.529-6.968 25.713-9.588 39.453H88.179c-17.681 0-32.066 14.384-32.066 32.065V248.5H15.127c1.598-52.615 19.989-102.329 52.611-142.981zm-.022 300.937C35.109 365.809 16.725 316.104 15.127 263.5h40.985v48.096c0 17.681 14.385 32.065 32.066 32.065h40.158c2.609 13.658 5.799 26.848 9.583 39.429a480.303 480.303 0 00-70.203 23.366zm180.783 90.056c-27.357-3.455-53.419-25.726-74.074-63.611a7.5 7.5 0 00-10.175-2.995 7.5 7.5 0 00-2.995 10.175c11.763 21.576 25.338 38.636 40.097 50.719-43.495-10.036-83.419-32.042-115.765-64.387a247.003 247.003 0 01-7.61-7.972 464.938 464.938 0 0164.606-21.055c1.29 3.699 2.613 7.361 4.007 10.938a7.502 7.502 0 006.99 4.778 7.5 7.5 0 006.987-10.225 308.46 308.46 0 01-3.282-8.859c29.76-6.319 60.228-9.738 91.214-10.212v112.706zm.001-127.708c-32.598.484-64.644 4.123-95.929 10.877-3.496-11.503-6.499-23.535-8.974-36.02H248.5v25.143zM88.179 328.661c-9.41 0-17.066-7.655-17.066-17.065V200.404c0-9.41 7.656-17.065 17.066-17.065h335.643c9.41 0 17.066 7.655 17.066 17.065v111.192h-.001c0 9.41-7.656 17.065-17.066 17.065H88.179zm280.225 15c-2.478 12.459-5.503 24.51-9.008 36.013-31.275-6.75-63.31-10.386-95.896-10.87v-25.143h104.904zM263.5 496.522V383.806c30.973.474 61.428 3.89 91.175 10.204-8.022 22.602-17.983 42.607-29.394 58.699-18.465 26.041-39.686 41.041-61.781 43.813zm162.913-70.11c-32.333 32.333-72.238 54.334-115.713 64.375 9.446-7.757 18.433-17.578 26.817-29.402 12.663-17.858 23.422-39.477 31.955-63.986a465.007 465.007 0 0164.551 21.041 247.003 247.003 0 01-7.61 7.972zm17.869-19.956a480.224 480.224 0 00-70.182-23.361c3.757-12.523 6.963-25.701 9.583-39.434h40.138c17.681 0 32.066-14.384 32.066-32.065V263.5h40.985c-1.597 52.604-19.981 102.309-52.59 142.956z"/><path d="M236.46 280.565h-40.597V263.5h34.585a7.5 7.5 0 000-15h-34.585v-17.064h40.597a7.5 7.5 0 000-15h-48.097a7.5 7.5 0 00-7.5 7.5v64.129a7.5 7.5 0 007.5 7.5h48.097a7.5 7.5 0 000-15zm-78.157-64.129a7.5 7.5 0 00-7.5 7.5v41.629l-34.597-46.129a7.502 7.502 0 00-13.5 4.5v64.129a7.5 7.5 0 0015 0v-41.629l34.597 46.129a7.5 7.5 0 0013.5-4.5v-64.129a7.5 7.5 0 00-7.5-7.5zm178.135.28a7.5 7.5 0 00-9.25 5.189l-10.816 38.458-10.817-38.458a7.5 7.5 0 00-14.44 0l-10.816 38.458-10.816-38.458a7.496 7.496 0 00-9.25-5.189 7.5 7.5 0 00-5.189 9.25l18.036 64.129a7.5 7.5 0 0014.44 0l10.816-38.458 10.817 38.458a7.5 7.5 0 0014.44 0l18.036-64.129a7.501 7.501 0 00-5.191-9.25zm48.325 32.058c-15.52-4.311-18.556-7.228-18.556-10.81 0-1.994 6.251-6.528 16.548-6.528 10.296 0 16.548 4.534 16.548 6.528a7.5 7.5 0 0015 0c0-12.273-13.563-21.528-31.548-21.528s-31.548 9.255-31.548 21.528c0 17.057 17.777 21.995 29.541 25.263 15.52 4.311 18.556 7.228 18.556 10.81 0 1.994-6.252 6.528-16.548 6.528s-16.548-4.534-16.548-6.528a7.5 7.5 0 00-15 0c0 12.273 13.563 21.528 31.548 21.528s31.548-9.255 31.548-21.528c0-17.057-17.777-21.995-29.541-25.263z"/></svg>