<svg xmlns="http://www.w3.org/2000/svg" viewBox="0 0 463 463"><path d="M394.772 75.678C351.106 38.25 293.122 17.637 231.5 17.637S111.894 38.25 68.228 75.678C24.23 113.39 0 163.628 0 217.137c0 28.338 6.758 55.719 20.086 81.382 12.01 23.125 28.771 43.786 49.863 61.481-9.162 22.863-22.082 48.781-29.275 62.77-2.793 5.431-2.201 11.796 1.544 16.611 2.992 3.845 7.438 5.981 12.137 5.981 1.176 0 2.367-.134 3.556-.408 22.876-5.274 66.354-17.079 104.111-37.51 22.517 6.101 45.875 9.192 69.479 9.192 61.622 0 119.606-20.613 163.272-58.041C438.77 320.884 463 270.646 463 217.137S438.77 113.39 394.772 75.678zM231.5 401.637c-23.263 0-46.265-3.179-68.366-9.45a7.503 7.503 0 00-5.693.662c-36.755 20.451-80.246 32.267-102.899 37.49-.155.036-.3.068-.483-.167-.194-.25-.114-.404-.044-.541 9.609-18.688 22.946-45.878 31.915-69.293a7.5 7.5 0 00-2.325-8.544c-21.473-17.137-38.364-37.387-50.205-60.188C21.19 268.1 15 243.045 15 217.137c0-101.733 97.121-184.5 216.5-184.5S448 115.404 448 217.137s-97.121 184.5-216.5 184.5z"/><path d="M231.5 322.637c-7.995 0-14.5 6.505-14.5 14.5s6.505 14.5 14.5 14.5 14.5-6.505 14.5-14.5-6.505-14.5-14.5-14.5zm0-225c-57.07 0-103.5 39.252-103.5 87.5 0 13.58 3.571 26.593 10.614 38.678a7.499 7.499 0 1012.959-7.552C145.885 206.5 143 196.028 143 185.137c0-39.977 39.701-72.5 88.5-72.5s88.5 32.523 88.5 72.5c0 17.209-7.52 33.905-21.175 47.011-13.834 13.279-32.963 22.035-53.862 24.653C233.012 258.3 224 268.328 224 280.129v17.008c0 4.142 3.357 7.5 7.5 7.5s7.5-3.358 7.5-7.5v-17.008c0-4.324 3.292-7.875 7.828-8.443 24.081-3.018 46.236-13.216 62.385-28.715C325.842 227.009 335 206.47 335 185.137c0-48.247-46.43-87.5-103.5-87.5z"/></svg>