<svg viewBox="0 0 340 340" xmlns="http://www.w3.org/2000/svg"><path d="M146.86 158.65a76.325 76.325 0 10-76.325-76.325 76.411 76.411 0 0076.325 76.325zm0-144.65a68.325 68.325 0 11-68.325 68.325A68.4 68.4 0 01146.86 14z"/><path d="M146.86 178.1a54.062 54.062 0 0147.645 28.454 4 4 0 007.042-3.8 62.1 62.1 0 00-116.623 25l-7.316 101.96A4 4 0 0081.6 334h79.3a4 4 0 100-8h-75l7-97.674a54.29 54.29 0 0153.96-50.226zm-12.575-47.322a54.056 54.056 0 0025.15 0c20.736-4.982 30-19.363 34.113-30.551a13.918 13.918 0 00-1.636-12.764 12.749 12.749 0 00-10.544-5.606h-69.016a12.749 12.749 0 00-10.544 5.606 13.918 13.918 0 00-1.636 12.764c4.117 11.188 13.377 25.573 34.113 30.551zM108.369 92.04a4.857 4.857 0 013.983-2.183h69.016a4.857 4.857 0 013.983 2.183 5.914 5.914 0 01.689 5.424c-3.442 9.356-11.177 21.38-28.474 25.536a46.06 46.06 0 01-21.412 0c-17.3-4.156-25.032-16.18-28.474-25.536a5.914 5.914 0 01.689-5.424z"/><path d="M154.78 276.658a57.343 57.343 0 1057.342-57.343 57.407 57.407 0 00-57.342 57.343zm106.685 0a49.343 49.343 0 11-49.343-49.343 49.4 49.4 0 0149.343 49.343z"/><path d="M208.122 264.937v7.721H200.4a4 4 0 000 8h7.721v7.72a4 4 0 008 0v-7.72h7.721a4 4 0 000-8h-7.721v-7.721a4 4 0 00-8 0zm-83.35-202.423a4 4 0 004-4v-2.99a4 4 0 10-8 0v2.99a4 4 0 004 4zm44.176 0a4 4 0 004-4v-2.99a4 4 0 00-8 0v2.99a4 4 0 004 4z"/></svg>