<svg xmlns="http://www.w3.org/2000/svg" viewBox="0 0 512 512"><path d="M437.02 74.981C388.668 26.629 324.38 0 256 0S123.332 26.629 74.98 74.981C26.629 123.332 0 187.62 0 256s26.629 132.668 74.98 181.019C123.332 485.371 187.62 512 256 512s132.668-26.629 181.02-74.981C485.371 388.668 512 324.38 512 256s-26.629-132.668-74.98-181.019zM256 494.819C124.315 494.819 17.181 387.685 17.181 256S124.315 17.181 256 17.181 494.819 124.315 494.819 256 387.685 494.819 256 494.819z"/><path d="M399.525 112.476a8.59 8.59 0 00-11.235-.793L237.295 225.159c-10.41 6.335-17.376 17.789-17.376 30.841 0 19.895 16.186 36.081 36.081 36.081 13.054 0 24.511-6.969 30.847-17.382l113.47-150.987a8.59 8.59 0 00-.792-11.236zM256 274.899c-10.421 0-18.899-8.478-18.899-18.899s8.478-18.899 18.899-18.899 18.899 8.478 18.899 18.899-8.478 18.899-18.899 18.899zm33.486-32.31a36.269 36.269 0 00-20.076-20.075l80.792-60.717-60.716 80.792z"/><path d="M335.02 112.144c-29.36-15.95-64.055-22.69-97.688-18.977-34.727 3.833-66.498 18.073-91.879 41.187-33.568 30.568-52.639 72.391-53.7 117.768-1.063 45.418 15.991 88.073 48.02 120.104 1.678 1.678 3.876 2.516 6.075 2.516s4.397-.838 6.074-2.516a8.59 8.59 0 000-12.149c-28.675-28.677-43.945-66.874-42.993-107.552.951-40.637 18.03-78.092 48.093-105.466 22.679-20.652 51.103-33.382 82.196-36.814 30.186-3.331 61.295 2.706 87.601 16.998a8.588 8.588 0 0011.649-3.448 8.594 8.594 0 00-3.448-11.651z"/><path d="M367.428 88.688c-45.97-30.638-103.372-40.954-157.49-28.305-54.734 12.792-100.813 47.43-129.748 97.535a179.971 179.971 0 00-18.865 46.729c-17.527 70.737 2.111 143.07 52.532 193.492a8.602 8.602 0 006.069 2.516 8.594 8.594 0 005.915-14.832c-22.482-22.537-38.767-50.46-47.102-80.764-8.465-30.777-8.72-64.071-.739-96.281 3.662-14.778 9.404-29 17.067-42.269 26.536-45.949 68.72-77.697 118.781-89.397 49.512-11.573 102.016-2.143 144.051 25.873a8.59 8.59 0 0011.912-2.385 8.589 8.589 0 00-2.383-11.912zm87.62 138.676c-4.062-29.517-15.034-58.178-31.731-82.884a8.591 8.591 0 00-14.235 9.62c15.231 22.537 25.24 48.681 28.945 75.605 8.014 58.242-10.953 115.207-52.034 156.287a8.59 8.59 0 000 12.148c1.677 1.678 3.876 2.516 6.074 2.516s4.397-.838 6.074-2.516c44.918-44.915 65.659-107.161 56.907-170.776z"/><path d="M399.903 176.857a8.59 8.59 0 00-15.06 8.271c15.035 27.373 21.028 59.587 16.874 90.708-4.293 32.16-18.687 61.287-41.631 84.231-3.355 3.355-3.355 8.814 0 12.169a8.56 8.56 0 006.074 2.516 8.56 8.56 0 006.426-2.888c25.428-25.581 41.387-57.989 46.16-93.756 4.637-34.729-2.056-70.687-18.843-101.251z"/></svg>