<?xml version="1.0" encoding="utf-8"?><svg viewBox="0 0 800 800" xmlns="http://www.w3.org/2000/svg" xmlns:xlink="http://www.w3.org/1999/xlink"><style>:root>svg{display:none}:root>svg:target{display:block}</style><svg viewBox="0 0 512 512" id="arrow" xmlns="http://www.w3.org/2000/svg"><path d="M263.454 69.995c-3.593-4.574-11.315-4.574-14.907 0L144.25 202.736a9.47 9.47 0 0 0-1.074 10 9.485 9.485 0 0 0 8.528 5.338h47.407v208.593c0 5.236 4.245 9.481 9.482 9.481h94.815c5.236 0 9.482-4.245 9.482-9.481V218.074h47.407c3.63 0 6.94-2.074 8.528-5.338a9.47 9.47 0 0 0-1.074-10L263.454 69.995zm39.953 129.116a9.482 9.482 0 0 0-9.482 9.482v208.593h-75.852V208.593a9.482 9.482 0 0 0-9.482-9.482h-37.38L256 91.199l84.787 107.912h-37.38z"/><path d="M256 0C114.843 0 0 114.843 0 256s114.843 256 256 256 256-114.843 256-256S397.157 0 256 0zm0 493.037C125.296 493.037 18.963 386.704 18.963 256S125.296 18.963 256 18.963 493.037 125.296 493.037 256 386.704 493.037 256 493.037z"/></svg><svg viewBox="0 0 496 496" id="cash" xmlns="http://www.w3.org/2000/svg"><path d="M480 172.664V65.304l4.032 2.304 7.936-13.888L432 19.456 372.032 53.72l7.936 13.888L384 65.304v75.36h16V56.16l32-18.288 32 18.288v116.504H32V72.16l32-18.288L96 72.16v52.504h16v-43.36l4.032 2.304 7.936-13.888L64 35.456 4.032 69.72l7.936 13.888L16 81.304v91.36H0v256h496v-256h-16zm-464 16h31.192C44 204.312 31.648 216.664 16 219.856v-31.192zm0 224v-31.192c15.648 3.192 28 15.544 31.192 31.192H16zm464 0h-31.192c3.192-15.648 15.544-28 31.192-31.192v31.192zm0-47.36c-24.472 3.528-43.832 22.888-47.36 47.36H63.36c-3.528-24.472-22.888-43.832-47.36-47.36v-129.28c24.472-3.528 43.832-22.888 47.36-47.36h369.28c3.528 24.472 22.888 43.832 47.36 47.36v129.28zm0-145.448c-15.648-3.192-28-15.544-31.192-31.192H480v31.192z"/><path d="M248 204.664c-52.936 0-96 43.064-96 96s43.064 96 96 96 96-43.064 96-96-43.064-96-96-96zm0 176c-44.112 0-80-35.888-80-80s35.888-80 80-80 80 35.888 80 80-35.888 80-80 80zm-248 64h496v16H0zm0 32h496v16H0zm424-336h16v16h-16zm0-80h16v64h-16zm-368 16h16v80H56zm144-25.872v89.872h16V41.192l32-19.2 32 19.2v99.472h16V50.792l27.88 16.728 8.24-13.712L248 3.336l-84.12 50.472 8.24 13.712z"/><path d="M240 44.664h16v112h-16zm-144 96h16v16H96zm164 112h-4v-16h-16v16h-4c-15.44 0-28 12.56-28 28s12.56 28 28 28h24c6.616 0 12 5.384 12 12s-5.384 12-12 12h-24c-6.616 0-12-5.384-12-12v-4h-16v4c0 15.44 12.56 28 28 28h4v16h16v-16h4c15.44 0 28-12.56 28-28s-12.56-28-28-28h-24c-6.616 0-12-5.384-12-12s5.384-12 12-12h24c6.616 0 12 5.384 12 12v4h16v-4c0-15.44-12.56-28-28-28z"/></svg><svg viewBox="0 0 20 20" fill="none" id="check" xmlns="http://www.w3.org/2000/svg"><path fill="#0971fe" fill-rule="evenodd" d="M3 10a7 7 0 0 1 9.307-6.611 1 1 0 0 0 .658-1.889 9 9 0 1 0 5.98 7.501 1 1 0 0 0-1.988.22A7 7 0 1 1 3 10zm14.75-5.338a1 1 0 0 0-1.5-1.324l-6.435 7.28-3.183-2.593a1 1 0 0 0-1.264 1.55l3.929 3.2a1 1 0 0 0 1.38-.113l7.072-8z"/></svg><svg viewBox="0 0 20 20" fill="none" stroke="#fff" id="check-white" xmlns="http://www.w3.org/2000/svg"><path fill="#fff" fill-rule="evenodd" d="M3 10a7 7 0 0 1 9.307-6.611 1 1 0 0 0 .658-1.889 9 9 0 1 0 5.98 7.501 1 1 0 0 0-1.988.22A7 7 0 1 1 3 10zm14.75-5.338a1 1 0 0 0-1.5-1.324l-6.435 7.28-3.183-2.593a1 1 0 0 0-1.264 1.55l3.929 3.2a1 1 0 0 0 1.38-.113l7.072-8z"/></svg><svg viewBox="0 0 471.936 471.936" id="cup" xmlns="http://www.w3.org/2000/svg"><path d="M159.542 73.447a5 5 0 0 0 4.278-5.63 432.32 432.32 0 0 1-1.563-12.912 5 5 0 0 0-9.945 1.053 445.798 445.798 0 0 0 1.601 13.211 5 5 0 0 0 5.629 4.278zm7.617 14.883a4.999 4.999 0 1 0-9.824 1.866c6.26 32.958 16.182 61.961 28.691 83.873a4.996 4.996 0 0 0 6.821 1.863 5 5 0 0 0 1.863-6.821c-11.968-20.963-21.494-48.896-27.551-80.781zm111.261 88.707a5 5 0 0 0-6.947 1.317c-11.494 16.875-24.104 26.169-35.504 26.169a5 5 0 1 0 0 10c15.025 0 30.16-10.561 43.77-30.54a5 5 0 0 0-1.319-6.946zm36.759-126.578a5 5 0 0 0-5.499 4.445c-4.411 41.639-14.199 78.455-28.307 106.467a5 5 0 0 0 8.932 4.498c14.644-29.079 24.782-67.085 29.32-109.912a5 5 0 0 0-4.446-5.498zm1.051-13.107a5 5 0 0 0 5.269-4.715c.211-3.792.38-7.654.501-11.478a5 5 0 0 0-4.838-5.157c-2.769-.072-5.068 2.079-5.156 4.838-.12 3.745-.285 7.527-.491 11.241a5 5 0 0 0 4.715 5.271z"/><path d="M404.518 25.437h-58.16a5 5 0 0 0-5 5v8.648c0 3.788-1.975 7.167-4.944 9.154A503.072 503.072 0 0 0 338.258 5a5 5 0 0 0-5-5h-194.58a5 5 0 0 0-5 5c0 14.677.626 29.14 1.844 43.239-2.969-1.987-4.944-5.365-4.944-9.154v-8.648a5 5 0 0 0-5-5h-58.16a5 5 0 0 0-5 5v8.648c0 38.371 7.211 68.81 22.046 93.056 19.151 31.289 51.085 51.947 94.917 61.44 9.356 13.62 19.667 23.666 30.593 29.811-3.669 2.646-6.071 6.945-6.071 11.804 0 7.291 5.394 13.33 12.397 14.379-.639 5.08-1.221 10.134-1.786 15.056-3.618 31.532-7.046 61.358-24.509 82.781h-5.603a5 5 0 0 0-5 5v11h-18.297a5 5 0 0 0-5 5v77.523H144.66a5 5 0 0 0-5 5v16a5 5 0 0 0 5 5h182.616a5 5 0 0 0 5-5v-16a5 5 0 0 0-5-5h-11.445v-77.523a5 5 0 0 0-5-5h-18.297v-11a5 5 0 0 0-5-5h-5.602c-17.464-21.424-20.892-51.252-24.51-82.786-.564-4.921-1.146-9.973-1.785-15.051 7.003-1.049 12.397-7.088 12.397-14.379 0-4.859-2.402-9.158-6.072-11.804 10.927-6.145 21.237-16.192 30.593-29.811 43.831-9.493 75.765-30.152 94.917-61.441 14.834-24.246 22.045-54.684 22.045-93.055v-8.648a4.998 4.998 0 0 0-4.999-5zM332.98 77.303c14.896-1.028 27.869-10.685 33.163-24.57h15.722c-1.437 26.736-7.235 48.092-17.674 65.158-11.81 19.297-29.41 33.159-53.605 42.163 10.199-23.947 17.773-52.129 22.394-82.751zm-171.628 82.752c-24.195-9.004-41.796-22.866-53.604-42.162C97.309 100.827 91.51 79.47 90.072 52.734h15.723c5.293 13.885 18.266 23.542 33.162 24.57 4.621 30.621 12.194 58.803 22.395 82.751zm-68.359-33.134c-13.845-22.629-20.575-51.36-20.575-87.836v-3.648h48.161v3.648c0 9.774 6.88 18.132 16.047 20.397.282 2.55.59 5.082.911 7.604-11.047-1.604-20.324-9.635-23.284-20.651a5 5 0 0 0-4.829-3.703h-24.57a5 5 0 0 0-4.997 5.161c.998 30.945 7.331 55.548 19.361 75.217 14.507 23.705 36.744 39.873 67.884 49.415 1.546 3.1 3.127 6.092 4.746 8.957-36.106-9.685-62.6-28.006-78.855-54.561zm229.283 335.015H149.66v-6h172.616v6zm-16.445-16H166.105v-72.523h139.726v72.523zm-116.429-82.523v-6h93.132v6h-93.132zm13.04-16a88.185 88.185 0 0 0 3.792-6.217h59.469a87.957 87.957 0 0 0 3.792 6.217h-67.053zm58.441-16.218h-49.83c8.125-19.538 10.712-42.033 13.395-65.423.602-5.241 1.224-10.631 1.91-16.018h19.221c.686 5.385 1.309 10.773 1.909 16.012 2.684 23.394 5.268 45.89 13.395 65.429zm-7.406-91.441h-35.019c-2.513 0-4.557-2.044-4.557-4.557s2.044-4.557 4.557-4.557h35.019c2.513 0 4.558 2.044 4.558 4.557s-2.045 4.557-4.558 4.557zm-17.508-19.231c-23.886 0-46.692-21.879-64.22-61.608C154.167 119.063 144.257 66.348 143.703 10h184.531c-.555 56.347-10.464 109.063-28.046 148.916-17.527 39.728-40.334 61.607-64.219 61.607zM399.518 39.085c0 36.476-6.73 65.207-20.574 87.835-16.255 26.556-42.75 44.876-78.855 54.564 1.619-2.865 3.2-5.857 4.746-8.957 31.14-9.543 53.377-25.71 67.885-49.416 12.03-19.668 18.362-44.272 19.359-75.216a4.996 4.996 0 0 0-4.997-5.161h-24.569a5 5 0 0 0-4.829 3.702c-2.96 11.015-12.239 19.046-23.284 20.651.321-2.522.629-5.054.911-7.604 9.167-2.265 16.047-10.623 16.047-20.397v-3.648h48.16v3.647z"/><path d="M266.969 387.174h-62a5 5 0 0 0-5 5v35a5 5 0 0 0 5 5h62a5 5 0 0 0 5-5v-35a5 5 0 0 0-5-5zm-5 35h-52v-25h52v25zm-73.498-43.761h-14a5 5 0 1 0 0 10h14a5 5 0 1 0 0-10zm87 33a5 5 0 0 0 5 5h14a5 5 0 1 0 0-10h-14a5 5 0 0 0-5 5zm-94 17h-7a5 5 0 1 0 0 10h7a5 5 0 1 0 0-10z"/></svg><svg viewBox="-7 0 479 480" id="exit" xmlns="http://www.w3.org/2000/svg"><path d="M200.5 216c-13.254 0-24 10.746-24 24s10.746 24 24 24 24-10.746 24-24c-.016-13.25-10.75-23.984-24-24zm0 32a8 8 0 1 1 8-8 8.005 8.005 0 0 1-8 8zm0 0"/><path d="m461.086 145.445-80-56A7.997 7.997 0 0 0 368.5 96v16h-48V8a8 8 0 0 0-8-8H8.5a15.42 15.42 0 0 0-2.664.54 7.794 7.794 0 0 0-1.758.968c-.27.183-.941.62-1.004.68-.715.8-1.344 1.675-1.883 2.605A7.89 7.89 0 0 0 .5 8v432a7.96 7.96 0 0 0 .602 2.98 15.87 15.87 0 0 0 1.593 2.461c.293.274.606.524.938.75.437.372.918.696 1.43.961.773.325 1.57.582 2.382.778l240 32a8.013 8.013 0 0 0 6.715-2.27 8.013 8.013 0 0 0 2.34-5.66v-24h56a8 8 0 0 0 8-8V192h48v16a7.994 7.994 0 0 0 4.305 7.094 7.995 7.995 0 0 0 8.28-.54l80-56a7.998 7.998 0 0 0 0-13.109zM240.5 462.863l-224-29.867V17.136l224 29.868zm64-30.863h-48V40a8.003 8.003 0 0 0-6.945-7.93L129.027 16H304.5v96h-24a8 8 0 0 0-8 8v64a8 8 0 0 0 8 8h24zm-16-256v-48h80v48zm96 16.637v-81.274L442.547 152zm0 0"/><path d="M184.5 112a8 8 0 0 0 8-8V72a7.997 7.997 0 0 0-6.867-7.918l-112-16a8.004 8.004 0 0 0-6.375 1.875A8.003 8.003 0 0 0 64.5 56v32a7.997 7.997 0 0 0 6.867 7.918l112 16a7.81 7.81 0 0 0 1.133.082zm-8-17.223-96-13.715v-15.84l96 13.716zm0 0"/></svg><svg viewBox="-9 0 274 274" preserveAspectRatio="xMidYMid" id="google" xmlns="http://www.w3.org/2000/svg"><path d="M188.813 178.875c32.46-17.823 57.067-31.404 59.188-32.46 6.785-3.608 13.792-13.158 0-20.576-4.453-2.333-28.428-15.491-59.188-32.46l-42.642 43.065 42.642 42.43z" fill="#FFD900"/><path d="M146.171 136.444 10.394 273.287c3.187.422 6.785-.423 11.027-2.755 8.906-4.875 103.318-56.434 167.392-91.647l-42.642-42.441z" fill="#F43249"/><path d="m146.171 136.444 42.642-42.853S30.971 7.45 21.421 2.365C17.823.234 13.791-.399 10.183.234l135.988 136.21z" fill="#00EE76"/><path d="M146.171 136.444 10.183.234C4.664 1.51 0 6.386 0 16.358v240.805c0 9.127 3.609 15.701 10.394 16.335l135.777-137.054z" fill="#00D3FF"/></svg><svg viewBox="0 0 507.482 507.482" id="history" xmlns="http://www.w3.org/2000/svg"><path d="m123.472 123.508-24.288-20.832A232.742 232.742 0 0 0 78.8 130.34l27.2 17.008a196.522 196.522 0 0 1 17.472-23.84zm44.64-38.688-17.216-26.992a231.918 231.918 0 0 0-27.584 20.528l20.96 24.16a201.086 201.086 0 0 1 23.84-17.696z"/><path d="M482.815 149.716c-39.367-78.501-119.684-128.045-207.503-128a230.713 230.713 0 0 0-94.144 19.872l12.976 29.248c101.002-44.714 219.128.916 263.842 101.918s-.916 219.128-101.918 263.842a200.012 200.012 0 0 1-80.756 17.12c-75.716.332-145.02-42.46-178.64-110.304l-28.624 14.304C125.486 472.251 264.897 518.537 379.432 461.1c114.535-57.438 160.821-196.849 103.383-311.384z"/><path d="M96 210.404 76.912 229.46a194.55 194.55 0 0 1 11.2-46.256c1.232-3.28 2.56-6.528 3.952-9.744l-29.344-12.8c-1.6 3.696-3.2 7.44-4.528 11.2a226.411 226.411 0 0 0-13.904 60.224l-21.664-21.68L0 233.028l59.312 59.312 59.312-59.312L96 210.404zm155.312-100.688v160h96v-32h-64v-128zm128 128h32v32h-32zm-128 128h32v32h-32z"/></svg><svg viewBox="0 0 336.034 336.034" id="house4" xmlns="http://www.w3.org/2000/svg"><path d="m328.777 156.946-143.24-143.28c-9.69-9.641-25.35-9.641-35.04 0L7.257 156.946c-9.676 9.676-9.676 25.364 0 35.04s25.364 9.676 35.04 0l9.72-9.8v131.32c.432 9.218 8.219 16.362 17.44 16h47.52a4 4 0 0 0 4-4v-77.84c.003-25.979 21.066-47.037 47.046-47.034 25.975.003 47.031 21.059 47.034 47.034v77.92a4 4 0 0 0 4 4h47.44c9.221.362 17.008-6.782 17.44-16v-131.4l9.8 9.8c9.676 9.676 25.364 9.676 35.04 0s9.676-25.364 0-35.04zm-52.76 156.56a8.84 8.84 0 0 1-9.44 8h-43.52v-73.84c0-30.398-24.642-55.04-55.04-55.04s-55.04 24.642-55.04 55.04v73.92h-43.48a8.84 8.84 0 0 1-9.44-8v-139.4l108-108 108 108-.04 139.32zm47.16-127.2c-6.556 6.535-17.164 6.535-23.72 0l-16.64-16.6-112-112a4 4 0 0 0-5.64 0l-112 112-16.6 16.6c-6.55 6.55-17.17 6.55-23.72 0-6.55-6.55-6.55-17.17 0-23.72l143.16-143.24c6.565-6.513 17.155-6.513 23.72 0l143.24 143.24c6.579 6.512 6.651 17.12.16 23.72h.04z"/></svg><svg viewBox="-60 0 432 432" id="lock" xmlns="http://www.w3.org/2000/svg"><path d="M184.035 208c-53.02 0-96 42.98-96 96s42.98 96 96 96 96-42.98 96-96c-.058-52.996-43.008-95.941-96-96zm0 176c-44.183 0-80-35.816-80-80s35.817-80 80-80c44.18 0 80 35.816 80 80-.05 44.164-35.84 79.953-80 80zm0 0"/><path d="M232.035 280c-.055-14.547-9.918-27.227-24-30.863V240h-16v8h-16v-8h-16v8h-8c-4.422 0-8 3.582-8 8v96c0 4.418 3.578 8 8 8h8v8h16v-8h16v8h16v-9.137a31.739 31.739 0 0 0 23.153-23.496A31.742 31.742 0 0 0 220.976 304a31.801 31.801 0 0 0 11.058-24zm-16 48c0 8.836-7.164 16-16 16h-40v-32h40c8.836 0 16 7.164 16 16zm-56-32v-32h40c8.836 0 16 7.164 16 16s-7.164 16-16 16zm0 0"/><path d="M192.035 432v-.406c52.75-3.219 98.082-38.578 114.035-88.965 15.957-50.383-.754-105.39-42.035-138.39V112c0-61.855-50.144-112-112-112-61.86 0-112 50.145-112 112v99.2c-38.086 36-50.351 91.59-30.95 140.269C28.489 400.152 75.63 432.066 128.036 432zm104-128c0 61.855-50.144 112-112 112-61.86 0-112-50.145-112-112s50.14-112 112-112c61.828.066 111.934 50.172 112 112zm-168-128a125.85 125.85 0 0 0-32 4.16V112c0-30.93 25.07-56 56-56 30.926 0 56 25.07 56 56v66.336a127.589 127.589 0 0 0-24-2.336zm24-160c52.992.059 95.942 43.004 96 96v81.32a127.567 127.567 0 0 0-24-10.832V112c0-39.766-32.238-72-72-72-39.765 0-72 32.234-72 72v80c0 8.836-7.164 16-16 16h-8v-96c.055-52.996 43.004-95.941 96-96zm-136 288a111.926 111.926 0 0 1 34.024-80h13.976c15.688-.055 29.02-11.477 31.485-26.969a111.565 111.565 0 0 1 26.234-4.758c-40.55 22.543-65.7 65.286-65.719 111.68-.015 46.395 25.106 89.156 65.637 111.727C62.449 412.29 16.132 363.32 16.035 304zm0 0"/></svg><svg viewBox="0 0 482.88 482.88" id="mining" xmlns="http://www.w3.org/2000/svg"><path d="M459.921 23.839a8.002 8.002 0 0 0-5.02-6.331l-9.472-3.704a199.07 199.07 0 0 0-172.743 13.081l-30.968 17.864-4-6.928a8 8 0 0 0-10.936-2.928l-27.712 16-8-13.856a8 8 0 0 0-10.936-2.928l-27.712 16a8 8 0 0 0-2.937 10.926l.001.002 8 13.856-27.712 16a8 8 0 0 0-2.928 10.928l4 6.928-30.928 17.864A199.007 199.007 0 0 0 2.206 269.685l-1.52 10.072a8 8 0 0 0 14.192 6.152l13.264-16.856a326.68 326.68 0 0 1 93.76-81.224l40.952-23.648 4 6.92a8 8 0 0 0 10.926 2.937l.002-.001 27.768-16 183.936 312.84c6.643 11.487 21.341 15.415 32.828 8.772s15.415-21.34 8.772-32.828L247.134 133.997l27.648-16a8 8 0 0 0 2.943-10.924l-.007-.012-4-6.928 40.952-23.64a326.435 326.435 0 0 1 117.216-40.552l21.24-3.056a8 8 0 0 0 6.795-9.046zm-278.667 28.11 4 6.928-13.856 8-4-6.928 13.856-8zm-67.312 122a342.587 342.587 0 0 0-91.288 76.488 182.926 182.926 0 0 1 85.272-109.968l30.928-17.864 8 13.856 8 13.856-40.912 23.632zm303.272 280.92a8 8 0 0 1-2.928 10.936v-.032a8 8 0 0 1-10.928-2.928l-.032-.056-183.912-312.784 13.856-8 183.944 312.864zM176.686 156.173l-32-55.424 83.136-48 32 55.424-83.136 48zM306.67 62.685l-40.952 23.64-8-13.856-8-13.856 30.968-17.864a182.96 182.96 0 0 1 137.832-18.864 342.298 342.298 0 0 0-111.848 40.8z"/><path d="M154.286 256.885c-61.856 0-112 50.144-112 112s50.144 112 112 112 112-50.144 112-112c-.066-61.829-50.172-111.934-112-112zm0 208c-53.019 0-96-42.981-96-96s42.981-96 96-96 96 42.981 96 96c-.058 52.995-43.005 95.942-96 96z"/><path d="M202.286 336.885c0-13.255-10.745-24-24-24h-8v-16h-16v16h-8v-16h-16v16h-24v16h16v80h-16v16h24v16h16v-16h8v16h16v-16h8c13.255 0 24-10.745 24-24v-16a23.848 23.848 0 0 0-6.24-16 23.848 23.848 0 0 0 6.24-16v-16zm-16 64a8 8 0 0 1-8 8h-40v-32h40a8 8 0 0 1 8 8v16zm0-48a8 8 0 0 1-8 8h-40v-32h40a8 8 0 0 1 8 8v16zm249.76-192c8.894-9.75 8.2-24.864-1.55-33.758a23.9 23.9 0 0 0-16.21-6.242h-8v-8h-16v8h-24v16h8v48h-8v16h24v8h16v-8h8c13.197.058 23.943-10.593 24.002-23.79a23.9 23.9 0 0 0-6.242-16.21zm-17.76 24h-24v-16h24a8 8 0 0 1 0 16zm0-32h-24v-16h24a8 8 0 0 1 0 16z"/><path d="M402.286 80.885c-44.183 0-80 35.817-80 80s35.817 80 80 80 80-35.817 80-80c-.049-44.163-35.838-79.952-80-80zm0 144c-35.346 0-64-28.654-64-64 0-35.346 28.654-64 64-64 35.346 0 64 28.654 64 64-.04 35.329-28.671 63.96-64 64z"/></svg><svg viewBox="0 0 512 512" id="news" xmlns="http://www.w3.org/2000/svg"><path d="M437.02 74.98C388.667 26.629 324.38 0 256 0S123.333 26.629 74.98 74.98C26.629 123.333 0 187.62 0 256s26.629 132.667 74.98 181.02C123.333 485.371 187.62 512 256 512s132.667-26.629 181.02-74.98C485.371 388.667 512 324.38 512 256s-26.629-132.667-74.98-181.02zm7.282 30.59c32.596 40.642 50.973 90.337 52.57 142.93h-40.985v-48.096c0-17.681-14.385-32.065-32.066-32.065h-40.158c-2.608-13.652-5.797-26.834-9.58-39.41a480.15 480.15 0 0 0 70.219-23.359zm-180.8-90.082c27.376 3.457 53.452 25.753 74.114 63.684a7.5 7.5 0 0 0 13.173-7.176c-11.773-21.612-25.362-38.698-40.137-50.795 43.492 10.036 83.415 32.041 115.761 64.386a247.404 247.404 0 0 1 7.633 7.996 464.821 464.821 0 0 1-64.623 21.049c-1.323-3.794-2.681-7.55-4.114-11.217a7.499 7.499 0 0 0-9.715-4.256 7.5 7.5 0 0 0-4.256 9.715 306.7 306.7 0 0 1 3.382 9.123c-29.761 6.314-60.231 9.728-91.218 10.197V15.488zm-.002 127.71c32.6-.479 64.648-4.114 95.936-10.864 3.493 11.499 6.493 23.525 8.967 36.005H263.5v-25.141zm-15-127.72v112.715c-30.971-.479-61.424-3.899-91.169-10.218 8.021-22.595 17.98-42.595 29.388-58.683C205.184 33.25 226.405 18.25 248.5 15.478zm0 127.717v25.144H143.597c2.479-12.464 5.506-24.521 9.013-36.029 31.272 6.754 63.306 10.396 95.89 10.885zM85.588 85.588C117.92 53.255 157.825 31.254 201.3 21.213c-9.446 7.757-18.433 17.578-26.816 29.401-12.66 17.854-23.417 39.466-31.949 63.968A464.823 464.823 0 0 1 78 93.536a246.637 246.637 0 0 1 7.588-7.948zm-17.85 19.931a480.146 480.146 0 0 0 70.167 23.367c-3.759 12.529-6.968 25.713-9.588 39.453H88.179c-17.681 0-32.066 14.384-32.066 32.065V248.5H15.127c1.598-52.615 19.989-102.329 52.611-142.981zm-.022 300.937C35.109 365.809 16.725 316.104 15.127 263.5h40.985v48.096c0 17.681 14.385 32.065 32.066 32.065h40.158c2.609 13.658 5.799 26.848 9.583 39.429a480.303 480.303 0 0 0-70.203 23.366zm180.783 90.056c-27.357-3.455-53.419-25.726-74.074-63.611a7.5 7.5 0 0 0-10.175-2.995 7.5 7.5 0 0 0-2.995 10.175c11.763 21.576 25.338 38.636 40.097 50.719-43.495-10.036-83.419-32.042-115.765-64.387a247.003 247.003 0 0 1-7.61-7.972 464.938 464.938 0 0 1 64.606-21.055c1.29 3.699 2.613 7.361 4.007 10.938a7.502 7.502 0 0 0 6.99 4.778 7.5 7.5 0 0 0 6.987-10.225 308.46 308.46 0 0 1-3.282-8.859c29.76-6.319 60.228-9.738 91.214-10.212v112.706zm.001-127.708c-32.598.484-64.644 4.123-95.929 10.877-3.496-11.503-6.499-23.535-8.974-36.02H248.5v25.143zM88.179 328.661c-9.41 0-17.066-7.655-17.066-17.065V200.404c0-9.41 7.656-17.065 17.066-17.065h335.643c9.41 0 17.066 7.655 17.066 17.065v111.192h-.001c0 9.41-7.656 17.065-17.066 17.065H88.179zm280.225 15c-2.478 12.459-5.503 24.51-9.008 36.013-31.275-6.75-63.31-10.386-95.896-10.87v-25.143h104.904zM263.5 496.522V383.806c30.973.474 61.428 3.89 91.175 10.204-8.022 22.602-17.983 42.607-29.394 58.699-18.465 26.041-39.686 41.041-61.781 43.813zm162.913-70.11c-32.333 32.333-72.238 54.334-115.713 64.375 9.446-7.757 18.433-17.578 26.817-29.402 12.663-17.858 23.422-39.477 31.955-63.986a465.007 465.007 0 0 1 64.551 21.041 247.003 247.003 0 0 1-7.61 7.972zm17.869-19.956a480.224 480.224 0 0 0-70.182-23.361c3.757-12.523 6.963-25.701 9.583-39.434h40.138c17.681 0 32.066-14.384 32.066-32.065V263.5h40.985c-1.597 52.604-19.981 102.309-52.59 142.956z"/><path d="M236.46 280.565h-40.597V263.5h34.585a7.5 7.5 0 0 0 0-15h-34.585v-17.064h40.597a7.5 7.5 0 0 0 0-15h-48.097a7.5 7.5 0 0 0-7.5 7.5v64.129a7.5 7.5 0 0 0 7.5 7.5h48.097a7.5 7.5 0 0 0 0-15zm-78.157-64.129a7.5 7.5 0 0 0-7.5 7.5v41.629l-34.597-46.129a7.502 7.502 0 0 0-13.5 4.5v64.129a7.5 7.5 0 0 0 15 0v-41.629l34.597 46.129a7.5 7.5 0 0 0 13.5-4.5v-64.129a7.5 7.5 0 0 0-7.5-7.5zm178.135.28a7.5 7.5 0 0 0-9.25 5.189l-10.816 38.458-10.817-38.458a7.5 7.5 0 0 0-14.44 0l-10.816 38.458-10.816-38.458a7.496 7.496 0 0 0-9.25-5.189 7.5 7.5 0 0 0-5.189 9.25l18.036 64.129a7.5 7.5 0 0 0 14.44 0l10.816-38.458 10.817 38.458a7.5 7.5 0 0 0 14.44 0l18.036-64.129a7.501 7.501 0 0 0-5.191-9.25zm48.325 32.058c-15.52-4.311-18.556-7.228-18.556-10.81 0-1.994 6.251-6.528 16.548-6.528 10.296 0 16.548 4.534 16.548 6.528a7.5 7.5 0 0 0 15 0c0-12.273-13.563-21.528-31.548-21.528s-31.548 9.255-31.548 21.528c0 17.057 17.777 21.995 29.541 25.263 15.52 4.311 18.556 7.228 18.556 10.81 0 1.994-6.252 6.528-16.548 6.528s-16.548-4.534-16.548-6.528a7.5 7.5 0 0 0-15 0c0 12.273 13.563 21.528 31.548 21.528s31.548-9.255 31.548-21.528c0-17.057-17.777-21.995-29.541-25.263z"/></svg><svg fill="#fff" viewBox="0 0 95.481 95.481" id="ok" xmlns="http://www.w3.org/2000/svg"><path d="M43.041 67.254c-7.402-.772-14.076-2.595-19.79-7.064-.709-.556-1.441-1.092-2.088-1.713-2.501-2.402-2.753-5.153-.774-7.988 1.693-2.426 4.535-3.075 7.489-1.682.572.27 1.117.607 1.639.969 10.649 7.317 25.278 7.519 35.967.329 1.059-.812 2.191-1.474 3.503-1.812 2.551-.655 4.93.282 6.299 2.514 1.564 2.549 1.544 5.037-.383 7.016-2.956 3.034-6.511 5.229-10.461 6.761-3.735 1.448-7.826 2.177-11.875 2.661.611.665.899.992 1.281 1.376 5.498 5.524 11.02 11.025 16.5 16.566 1.867 1.888 2.257 4.229 1.229 6.425-1.124 2.4-3.64 3.979-6.107 3.81-1.563-.108-2.782-.886-3.865-1.977-4.149-4.175-8.376-8.273-12.441-12.527-1.183-1.237-1.752-1.003-2.796.071-4.174 4.297-8.416 8.528-12.683 12.735-1.916 1.889-4.196 2.229-6.418 1.15-2.362-1.145-3.865-3.556-3.749-5.979.08-1.639.886-2.891 2.011-4.014 5.441-5.433 10.867-10.88 16.295-16.322.359-.362.694-.746 1.217-1.305z"/><path d="M47.55 48.329c-13.205-.045-24.033-10.992-23.956-24.218C23.67 10.739 34.505-.037 47.84 0c13.362.036 24.087 10.967 24.02 24.478-.068 13.199-10.971 23.897-24.31 23.851zm12.001-24.186c-.023-6.567-5.253-11.795-11.807-11.801-6.609-.007-11.886 5.316-11.835 11.943.049 6.542 5.324 11.733 11.896 11.709 6.552-.023 11.768-5.285 11.746-11.851z"/></svg><svg viewBox="0 0 463 463" id="question" xmlns="http://www.w3.org/2000/svg"><path d="M394.772 75.678C351.106 38.25 293.122 17.637 231.5 17.637S111.894 38.25 68.228 75.678C24.23 113.39 0 163.628 0 217.137c0 28.338 6.758 55.719 20.086 81.382 12.01 23.125 28.771 43.786 49.863 61.481-9.162 22.863-22.082 48.781-29.275 62.77-2.793 5.431-2.201 11.796 1.544 16.611 2.992 3.845 7.438 5.981 12.137 5.981 1.176 0 2.367-.134 3.556-.408 22.876-5.274 66.354-17.079 104.111-37.51 22.517 6.101 45.875 9.192 69.479 9.192 61.622 0 119.606-20.613 163.272-58.041C438.77 320.884 463 270.646 463 217.137S438.77 113.39 394.772 75.678zM231.5 401.637c-23.263 0-46.265-3.179-68.366-9.45a7.503 7.503 0 0 0-5.693.662c-36.755 20.451-80.246 32.267-102.899 37.49-.155.036-.3.068-.483-.167-.194-.25-.114-.404-.044-.541 9.609-18.688 22.946-45.878 31.915-69.293a7.5 7.5 0 0 0-2.325-8.544c-21.473-17.137-38.364-37.387-50.205-60.188C21.19 268.1 15 243.045 15 217.137c0-101.733 97.121-184.5 216.5-184.5S448 115.404 448 217.137s-97.121 184.5-216.5 184.5z"/><path d="M231.5 322.637c-7.995 0-14.5 6.505-14.5 14.5s6.505 14.5 14.5 14.5 14.5-6.505 14.5-14.5-6.505-14.5-14.5-14.5zm0-225c-57.07 0-103.5 39.252-103.5 87.5 0 13.58 3.571 26.593 10.614 38.678a7.499 7.499 0 1 0 12.959-7.552C145.885 206.5 143 196.028 143 185.137c0-39.977 39.701-72.5 88.5-72.5s88.5 32.523 88.5 72.5c0 17.209-7.52 33.905-21.175 47.011-13.834 13.279-32.963 22.035-53.862 24.653C233.012 258.3 224 268.328 224 280.129v17.008c0 4.142 3.357 7.5 7.5 7.5s7.5-3.358 7.5-7.5v-17.008c0-4.324 3.292-7.875 7.828-8.443 24.081-3.018 46.236-13.216 62.385-28.715C325.842 227.009 335 206.47 335 185.137c0-48.247-46.43-87.5-103.5-87.5z"/></svg><svg viewBox="0 0 340 340" id="reg" xmlns="http://www.w3.org/2000/svg"><path d="M146.86 158.65a76.325 76.325 0 1 0-76.325-76.325 76.411 76.411 0 0 0 76.325 76.325zm0-144.65a68.325 68.325 0 1 1-68.325 68.325A68.4 68.4 0 0 1 146.86 14z"/><path d="M146.86 178.1a54.062 54.062 0 0 1 47.645 28.454 4 4 0 0 0 7.042-3.8 62.1 62.1 0 0 0-116.623 25l-7.316 101.96A4 4 0 0 0 81.6 334h79.3a4 4 0 1 0 0-8h-75l7-97.674a54.29 54.29 0 0 1 53.96-50.226zm-12.575-47.322a54.056 54.056 0 0 0 25.15 0c20.736-4.982 30-19.363 34.113-30.551a13.918 13.918 0 0 0-1.636-12.764 12.749 12.749 0 0 0-10.544-5.606h-69.016a12.749 12.749 0 0 0-10.544 5.606 13.918 13.918 0 0 0-1.636 12.764c4.117 11.188 13.377 25.573 34.113 30.551zM108.369 92.04a4.857 4.857 0 0 1 3.983-2.183h69.016a4.857 4.857 0 0 1 3.983 2.183 5.914 5.914 0 0 1 .689 5.424c-3.442 9.356-11.177 21.38-28.474 25.536a46.06 46.06 0 0 1-21.412 0c-17.3-4.156-25.032-16.18-28.474-25.536a5.914 5.914 0 0 1 .689-5.424z"/><path d="M154.78 276.658a57.343 57.343 0 1 0 57.342-57.343 57.407 57.407 0 0 0-57.342 57.343zm106.685 0a49.343 49.343 0 1 1-49.343-49.343 49.4 49.4 0 0 1 49.343 49.343z"/><path d="M208.122 264.937v7.721H200.4a4 4 0 0 0 0 8h7.721v7.72a4 4 0 0 0 8 0v-7.72h7.721a4 4 0 0 0 0-8h-7.721v-7.721a4 4 0 0 0-8 0zm-83.35-202.423a4 4 0 0 0 4-4v-2.99a4 4 0 1 0-8 0v2.99a4 4 0 0 0 4 4zm44.176 0a4 4 0 0 0 4-4v-2.99a4 4 0 0 0-8 0v2.99a4 4 0 0 0 4 4z"/></svg><svg viewBox="0 0 512 512" id="speed" xmlns="http://www.w3.org/2000/svg"><path d="M437.02 74.981C388.668 26.629 324.38 0 256 0S123.332 26.629 74.98 74.981C26.629 123.332 0 187.62 0 256s26.629 132.668 74.98 181.019C123.332 485.371 187.62 512 256 512s132.668-26.629 181.02-74.981C485.371 388.668 512 324.38 512 256s-26.629-132.668-74.98-181.019zM256 494.819C124.315 494.819 17.181 387.685 17.181 256S124.315 17.181 256 17.181 494.819 124.315 494.819 256 387.685 494.819 256 494.819z"/><path d="M399.525 112.476a8.59 8.59 0 0 0-11.235-.793L237.295 225.159c-10.41 6.335-17.376 17.789-17.376 30.841 0 19.895 16.186 36.081 36.081 36.081 13.054 0 24.511-6.969 30.847-17.382l113.47-150.987a8.59 8.59 0 0 0-.792-11.236zM256 274.899c-10.421 0-18.899-8.478-18.899-18.899s8.478-18.899 18.899-18.899 18.899 8.478 18.899 18.899-8.478 18.899-18.899 18.899zm33.486-32.31a36.269 36.269 0 0 0-20.076-20.075l80.792-60.717-60.716 80.792z"/><path d="M335.02 112.144c-29.36-15.95-64.055-22.69-97.688-18.977-34.727 3.833-66.498 18.073-91.879 41.187-33.568 30.568-52.639 72.391-53.7 117.768-1.063 45.418 15.991 88.073 48.02 120.104 1.678 1.678 3.876 2.516 6.075 2.516s4.397-.838 6.074-2.516a8.59 8.59 0 0 0 0-12.149c-28.675-28.677-43.945-66.874-42.993-107.552.951-40.637 18.03-78.092 48.093-105.466 22.679-20.652 51.103-33.382 82.196-36.814 30.186-3.331 61.295 2.706 87.601 16.998a8.588 8.588 0 0 0 11.649-3.448 8.594 8.594 0 0 0-3.448-11.651z"/><path d="M367.428 88.688c-45.97-30.638-103.372-40.954-157.49-28.305-54.734 12.792-100.813 47.43-129.748 97.535a179.971 179.971 0 0 0-18.865 46.729c-17.527 70.737 2.111 143.07 52.532 193.492a8.602 8.602 0 0 0 6.069 2.516 8.594 8.594 0 0 0 5.915-14.832c-22.482-22.537-38.767-50.46-47.102-80.764-8.465-30.777-8.72-64.071-.739-96.281 3.662-14.778 9.404-29 17.067-42.269 26.536-45.949 68.72-77.697 118.781-89.397 49.512-11.573 102.016-2.143 144.051 25.873a8.59 8.59 0 0 0 11.912-2.385 8.589 8.589 0 0 0-2.383-11.912zm87.62 138.676c-4.062-29.517-15.034-58.178-31.731-82.884a8.591 8.591 0 0 0-14.235 9.62c15.231 22.537 25.24 48.681 28.945 75.605 8.014 58.242-10.953 115.207-52.034 156.287a8.59 8.59 0 0 0 0 12.148c1.677 1.678 3.876 2.516 6.074 2.516s4.397-.838 6.074-2.516c44.918-44.915 65.659-107.161 56.907-170.776z"/><path d="M399.903 176.857a8.59 8.59 0 0 0-15.06 8.271c15.035 27.373 21.028 59.587 16.874 90.708-4.293 32.16-18.687 61.287-41.631 84.231-3.355 3.355-3.355 8.814 0 12.169a8.56 8.56 0 0 0 6.074 2.516 8.56 8.56 0 0 0 6.426-2.888c25.428-25.581 41.387-57.989 46.16-93.756 4.637-34.729-2.056-70.687-18.843-101.251z"/></svg><svg viewBox="0 0 459.91 154.57" id="spicy" xmlns="http://www.w3.org/2000/svg"><defs><linearGradient id="qa" y1="66.51" x2="66.06" y2="66.51" gradientUnits="userSpaceOnUse"><stop offset="0" stop-color="#e322be"/><stop offset="1" stop-color="#c527b9"/></linearGradient><linearGradient id="qb" x1="459.91" y1="110.67" x2="37.96" y2="110.67" gradientUnits="userSpaceOnUse"><stop offset=".17" stop-color="#5822cf"/><stop offset=".73" stop-color="#c027ba"/><stop offset="1" stop-color="#c527b9"/></linearGradient></defs><g data-name="Слой 2"><g data-name="Слой 1"><path d="M85.44 3.66c.7-2.47 3-4.66 5.64-3.18 3.24 2.75 2.76 7.5 3.1 11.32-.53 6-4.1 12.12-9.91 14.43-3.73 1.62-1.14 6.46-2 9.55-1.58 7.16-5.33 14.51-12 18.13-6.78-7.18-4.42-17.94-1.1-26.18-4.49-3.15-9.17-6.51-11.69-11.51-2.07-3.26-2-7.26-2.21-11 6.86.26 13.82 2.45 18.84 7.3a43.77 43.77 0 0 1 6.31 8.2c1.81-1.67 3.92-3.11 5.3-5.18a14.77 14.77 0 0 0-.28-11.9z" fill="#602cd0"/><path d="M31.48 14.41c6-3.76 12.49-7.11 19.46-8.7-.38 9.6 5.17 18.32 13 23.47a86.15 86.15 0 0 0-2.31 11.68c-.25 5.5 2 10.63 4.41 15.46-8.4 2.72-16.57 6.5-23.27 12.36a47.64 47.64 0 0 0-12.4 25 76.69 76.69 0 0 0 3.47 29.17c.75 1.7-1 3.07-1.66 4.47l-3.18-.2C15.67 118.65 5.44 105.23 1.86 89.8-1.77 75.36.2 60.07 5.29 46.24a65.72 65.72 0 0 1 13.88-21.17c3.19-4.52 8.06-7.29 12.31-10.66" fill="url(#qa)"/><path d="M102.7 70.87c8-2.29 16.32-4.83 24.7-3.38a16.16 16.16 0 0 1 12.6 10.4c5.22 15.48-1.63 34.12-15.87 42.23-3.83 2.35-8.35 2.95-12.75 3.3-2 8.7-3.33 17.53-4.66 26.35-6.87 1.45-13.75 2.83-20.67 4 6.24-27.49 12.22-55.06 16.61-82.91M116.25 98c-.66 4.27-2 8.46-2 12.81 8.09-4.7 12.11-14.92 10.52-24-.47-2.8-3-4.36-5.17-5.79-1.6 5.56-2.21 11.31-3.35 16.98M47.86 85.84C54.19 76.31 65 70.58 76 68.38c6.14-.79 13.61-.72 18 4.33 3.85 4.51 3 10.83 2.19 16.24-5.69 1.79-11.43 3.36-17.15 5 .22-3.07 1.23-6.77-1.14-9.3-2.56-2.59-6.2 0-8.31 1.92A7 7 0 0 0 69 96.79c4.23 4.54 10.65 6.43 14.47 11.42 4.68 6 5.65 14.21 4.55 21.59A27.69 27.69 0 0 1 74.94 149c-5.36 3.5-11.83 4.56-18 5.57a26.41 26.41 0 0 1-16.66-8.18c-1-1.25-3.14-2.48-1.95-4.28 2.46-5.4 5.4-10.59 8.11-15.88a23.56 23.56 0 0 0 11.1 8.07c3.88 1.26 8.73-.26 10.84-3.85 1.27-2.54.36-5.65-1.36-7.75-5.71-7-14.83-10.46-20-18-3.95-5.59-2.69-13.38.88-18.84zM190.2 70.6c3.11 5.66 4.65 12 7.69 17.7 1 1.18 2.17 2.25 3.3 3.34 5.09-1.33 10.14-2.81 15.29-3.93.66-6-.48-13-5.56-16.94-5.93-4.68-14.35-3.06-20.72-.17zm26.47 4.05c1.17 15 2.24 30 2.69 45.1 1 11.06-3.51 21.51-5.28 32.26 6.79-.85 13.58-1.64 20.36-2.58 1.11-4.25 2.35-8.46 3.4-12.73 1-3.87 1.48-7.93 3.3-11.54q5.3-10.83 10.51-21.69a102.28 102.28 0 0 1-8.3-20.72c-2.48 6.67-4.84 13.37-7.22 20.08-.27-11.85.23-23.71 0-35.56-6.51 2.36-13 4.88-19.44 7.38zm62.78-2.88a155 155 0 0 0 7 18.26 13.35 13.35 0 0 1 3.39-1.22c1.42.45 2.2 1.85 3.25 2.81 5.08-1.3 10.13-2.74 15.24-4 .78-6.65-.9-14.52-7.18-18-6.88-3.68-15.16-1.09-21.69 2.15zm38.72-1.44a306.77 306.77 0 0 0 32.57-3.56c-2.33 27.82-3 55.75-4.34 83.63-6.7 1-13.41 2-20.11 3.07.78-6.55 1.52-13.11 2.16-19.67q-5.06-.09-10.09.16c-1.38 5.57-3 11.07-4.58 16.58l-2.87.36c-3.29-7.83-6.54-15.68-9.36-23.68.07-2.34 1-4.53 1.66-6.75 5.11-16.68 9.9-33.45 15-50.14m13.14 12.78c-3.59 12.81-6.65 25.8-9.91 38.71q4.05-.31 8.11-.53c1.12-13 2.35-26.06 3.31-39.1l-1.51.92zm55-14.76c5.44-.66 11.59-.65 16.19 2.74 5.25 4.21 5.43 12 3.55 17.9-5.54 1.94-11.28 3.3-16.89 5 .22-2.69 1.11-5.65-.3-8.15-.75-1.36-2.3-2.67-3.95-2.23a11.91 11.91 0 0 0-6.95 5.21c-1.7 2.7-.68 6.34 1.53 8.42 4.46 4.35 10.87 6.38 14.55 11.6 5 7 5.32 16.44 3.26 24.57-3.93 13.18-18.06 21.3-31.42 20.47-7.44.09-13.58-4.93-18.16-10.3 2.63-5.82 5.82-11.36 8.54-17.13 3.49 3.62 7.6 6.93 12.57 8.16 4.36.73 10.12-1.82 10.32-6.79-.29-3.89-3.2-6.84-6-9.2-5.65-4.64-12.37-8.32-16.45-14.59-3.88-6.23-1.8-14.45 2.49-19.93 6.55-8.53 16.73-13.75 27.16-15.75m55.61.44a159 159 0 0 1 18-1.73 25.7 25.7 0 0 1-.77 6.71c-3.39 12.5-5.8 25.24-8 38-2.05 12.27-4.32 24.51-5.81 36.87-6.21 1-12.49 1.52-18.73 2.25C429 139 431.32 127 433.67 115.1c-3.75.35-7.5.69-11.24 1.07-2.05 11.27-4.14 22.56-6.54 33.76-6 1.83-12.25 2.65-18.35 4 5.54-28.53 11.61-57 14.91-85.91 6.45.41 12.89.86 19.36.83-2.58 11.09-5.22 22.17-7.48 33.33 3.8-.39 7.59-.85 11.37-1.35 2-10.7 3.53-21.51 6.23-32.07zm-292.85 2.63c-1.46 7.64-3.11 15.27-4.19 23 4.15 9.53 7.69 19.32 11.85 28.86 3.79-18.15 7.32-36.37 10.74-54.59-6.14.87-12.24 2-18.4 2.75zm98.92-2.68c-1.49 4.7-3.31 9.29-4.72 14a102.28 102.28 0 0 0 8.3 20.72c4.93-10.3 10.2-20.44 14.93-30.82-6.18-1.24-12.3-2.82-18.51-3.91zm-77.64 21.61a79.32 79.32 0 0 0-9.43 40.53c.34 7.42 2.39 15.6 8.51 20.38 5.23 4 12.54 3.21 18.06.23 9.1-4.86 15.21-13.78 19.33-23-4.48-2-9.08-3.7-13.61-5.54-1.59 4-3.81 8.18-7.74 10.36-1.64 1.09-4.14 1.13-5.17-.79-1.51-3.8-.53-8.05.22-11.92 2.39-9.41 5.65-18.79 11.09-26.9a15.33 15.33 0 0 1 6.24-5.4c-3-5.69-4.58-12-7.69-17.7l-.12-.25a50.47 50.47 0 0 0-19.65 20zm96.26-6.72c-10.38 14-14.71 32-13.68 49.27.49 6.57 2.66 13.52 7.82 17.93s13 3.54 18.7.61c9-4.94 15.11-13.8 19.23-23-4.49-1.91-9.05-3.65-13.57-5.5-1.81 4.14-4.07 8.6-8.35 10.64a3.36 3.36 0 0 1-4.95-1.85c-1.2-4.25 0-8.69 1-12.86 2.88-10.25 6.53-20.66 13.59-28.85a155 155 0 0 1-7-18.26 48.54 48.54 0 0 0-12.76 11.86zM145 94.4c-4.32 19.71-7.4 39.72-12.83 59.19 6.47-.87 12.94-1.88 19.47-2.17 1.7-9.39 3.78-18.73 5.21-28.16-4.16-9.54-7.7-19.33-11.85-28.86zm156.38 32.18c-2.68 8.81-5.37 17.62-8 26.45 5.85-.65 11.71-1.33 17.56-2.13-3.29-7.83-6.54-15.68-9.36-23.68l-.21-.64z" fill="url(#qb)"/></g></g></svg><svg viewBox="0 0 512 512" id="support" xmlns="http://www.w3.org/2000/svg"><path d="M366 396c-5.52 0-10 4.48-10 10s4.48 10 10 10 10-4.48 10-10-4.48-10-10-10z"/><path d="m390.622 363.663-47.53-15.84-17.063-34.127c15.372-15.646 26.045-36.348 29.644-57.941L357.801 243H376c16.542 0 30-13.458 30-30v-63C406 67.29 338.71 0 256 0c-82.922 0-150 67.097-150 150v63c0 13.036 8.361 24.152 20 28.28V253c0 16.542 13.458 30 30 30h8.782a108.487 108.487 0 0 0 16.774 25.974 103.947 103.947 0 0 0 4.406 4.741l-17.054 34.108-47.531 15.841C66.112 382.092 26 440.271 26 502c0 5.523 4.477 10 10 10h440c5.522 0 10-4.477 10-10 0-61.729-40.111-119.908-95.378-138.337zM386 213c0 5.514-4.486 10-10 10h-15.262c2.542-19.69 4.236-40.643 4.917-61.28.02-.582.036-1.148.054-1.72H386v53zm-250 10c-5.514 0-10-4.486-10-10v-53h20.298c.033 1.043.068 2.091.107 3.146l.004.107v.009c.7 20.072 2.372 40.481 4.856 59.737H136V223zm20 40c-5.514 0-10-4.486-10-10v-10h8.198l2.128 12.759a105.57 105.57 0 0 0 1.482 7.241H156zm-9.983-123H126.38C131.445 72.979 187.377 20 256 20c68.318 0 124.496 52.972 129.619 120h-19.635c-.72-55.227-45.693-100-101.033-100h-17.9c-55.339 0-100.315 44.773-101.034 100zM247.05 60h17.9c44.809 0 81.076 36.651 81.05 81.41 0 3.147-.025 5.887-.078 8.38l-.001.098-12.508-1.787c-33.98-4.852-66.064-20.894-90.342-45.172A10.003 10.003 0 0 0 236 100c-26.856 0-52.564 12.236-69.558 32.908C170.63 92.189 205.053 60 247.05 60zm-68.51 203c-5.006-16.653-10.734-65.653-12-97.053l13.459-17.946c12.361-16.476 31.592-26.713 52.049-27.888 26.917 25.616 61.739 42.532 98.537 47.786l14.722 2.104c-.984 20.885-2.995 41.843-5.876 61.118l-.003.02c-.916 6.197-1.638 10.185-3.482 21.324-5.296 31.765-28.998 60.49-60.287 68.313a81.338 81.338 0 0 1-39.313 0c-19.537-4.884-37.451-18.402-49.012-37.778h20.386c4.128 11.639 15.243 20 28.28 20h20c16.575 0 30-13.424 30-30 0-16.542-13.458-30-30-30h-20c-13.327 0-24.278 8.608-28.297 20H178.54zm56.619 78.016A101.171 101.171 0 0 0 256 343.2c5.471 0 10.943-.458 16.353-1.346l-17.67 18.687-19.524-19.525zm5.776 34.063-31.718 33.542a381.013 381.013 0 0 1-22.389-51.917l11.911-23.822 42.196 42.197zm70.631-45.585 13.604 27.209a380.908 380.908 0 0 1-22.392 51.933l-33.948-33.948 42.736-45.194zM226 273c0-5.521 4.478-10 10-10h20c5.514 0 10 4.486 10 10 0 5.522-4.479 10-10 10h-20c-5.514 0-10-4.486-10-10zM46.4 492c3.963-49.539 36.932-94.567 81.302-109.363l42.094-14.028a400.869 400.869 0 0 0 28.463 61.74l.056.101.001.002a400.974 400.974 0 0 0 27.372 41.799L237.99 492H46.4zm209.6-8.914-13.562-21.773a10.133 10.133 0 0 0-.486-.711 381.284 381.284 0 0 1-22.532-33.662l35.663-37.714 37.578 37.578A380.863 380.863 0 0 1 270.05 460.6c-.49.653.205-.376-14.05 22.486zM274.01 492l12.301-19.748a400.826 400.826 0 0 0 27.564-42.132c.05-.088.097-.178.147-.266l.018-.032a400.543 400.543 0 0 0 28.164-61.213l42.093 14.028c44.371 14.796 77.34 59.824 81.303 109.363H274.01z"/><path d="M435.546 451.531c-6.683-13.377-16.472-25.261-28.309-34.367-4.378-3.369-10.656-2.55-14.023 1.828-3.368 4.378-2.549 10.656 1.828 14.024 9.454 7.273 17.272 16.766 22.611 27.453 2.473 4.949 8.483 6.941 13.415 4.477 4.94-2.468 6.945-8.474 4.478-13.415z"/></svg><svg viewBox="0 0 60 60" id="user" xmlns="http://www.w3.org/2000/svg"><path d="m48.014 42.889-9.553-4.776A2.63 2.63 0 0 1 37 35.748v-3.381c.229-.28.47-.599.719-.951a22.886 22.886 0 0 0 2.954-5.799A3.968 3.968 0 0 0 43 22v-4c0-.963-.36-1.896-1-2.625v-5.319c.056-.55.276-3.824-2.092-6.525C37.854 1.188 34.521 0 30 0s-7.854 1.188-9.908 3.53C17.724 6.231 17.944 9.506 18 10.056v5.319c-.64.729-1 1.662-1 2.625v4c0 1.217.553 2.352 1.497 3.109.916 3.627 2.833 6.36 3.503 7.237v3.309c0 .968-.528 1.856-1.377 2.32l-8.921 4.866A9.018 9.018 0 0 0 7 50.762V54c0 4.746 15.045 6 23 6s23-1.254 23-6v-3.043a8.973 8.973 0 0 0-4.986-8.068z" fill="#fff"/></svg><svg viewBox="0 0 548.358 548.358" id="vk2" xmlns="http://www.w3.org/2000/svg"><path d="M545.451 400.298c-.664-1.431-1.283-2.618-1.858-3.569-9.514-17.135-27.695-38.167-54.532-63.102l-.567-.571-.284-.28-.287-.287h-.288c-12.18-11.611-19.893-19.418-23.123-23.415-5.91-7.614-7.234-15.321-4.004-23.13 2.282-5.9 10.854-18.36 25.696-37.397 7.807-10.089 13.99-18.175 18.556-24.267 32.931-43.78 47.208-71.756 42.828-83.939l-1.701-2.847c-1.143-1.714-4.093-3.282-8.846-4.712-4.764-1.427-10.853-1.663-18.278-.712l-82.224.568c-1.332-.472-3.234-.428-5.712.144l-3.713.859-1.431.715-1.136.859c-.952.568-1.999 1.567-3.142 2.995-1.137 1.423-2.088 3.093-2.848 4.996-8.952 23.031-19.13 44.444-30.553 64.238-7.043 11.803-13.511 22.032-19.418 30.693-5.899 8.658-10.848 15.037-14.842 19.126-4 4.093-7.61 7.372-10.852 9.849-3.237 2.478-5.708 3.525-7.419 3.142-1.715-.383-3.33-.763-4.859-1.143-2.663-1.714-4.805-4.045-6.42-6.995-1.622-2.95-2.714-6.663-3.285-11.136-.568-4.476-.904-8.326-1-11.563-.089-3.233-.048-7.806.145-13.706.198-5.903.287-9.897.287-11.991 0-7.234.141-15.085.424-23.555.288-8.47.521-15.181.716-20.125.194-4.949.284-10.185.284-15.705s-.336-9.849-1-12.991a44.442 44.442 0 0 0-2.99-9.137c-1.335-2.95-3.289-5.232-5.853-6.852-2.569-1.618-5.763-2.902-9.564-3.856-10.089-2.283-22.936-3.518-38.547-3.71-35.401-.38-58.148 1.906-68.236 6.855-3.997 2.091-7.614 4.948-10.848 8.562-3.427 4.189-3.905 6.475-1.431 6.851 11.422 1.711 19.508 5.804 24.267 12.275l1.715 3.429c1.334 2.474 2.666 6.854 3.999 13.134 1.331 6.28 2.19 13.227 2.568 20.837.95 13.897.95 25.793 0 35.689-.953 9.9-1.853 17.607-2.712 23.127-.859 5.52-2.143 9.993-3.855 13.418-1.715 3.426-2.856 5.52-3.428 6.28-.571.76-1.047 1.239-1.425 1.427a21.387 21.387 0 0 1-7.71 1.431c-2.667 0-5.901-1.334-9.707-4-3.805-2.666-7.754-6.328-11.847-10.992-4.093-4.665-8.709-11.184-13.85-19.558-5.137-8.374-10.467-18.271-15.987-29.691l-4.567-8.282c-2.855-5.328-6.755-13.086-11.704-23.267-4.952-10.185-9.329-20.037-13.134-29.554-1.521-3.997-3.806-7.04-6.851-9.134l-1.429-.859c-.95-.76-2.475-1.567-4.567-2.427a30.301 30.301 0 0 0-6.567-1.854l-78.229.568c-7.994 0-13.418 1.811-16.274 5.428l-1.143 1.711c-.571.953-.859 2.475-.859 4.57 0 2.094.571 4.664 1.714 7.707 11.42 26.84 23.839 52.725 37.257 77.659 13.418 24.934 25.078 45.019 34.973 60.237 9.897 15.229 19.985 29.602 30.264 43.112 10.279 13.515 17.083 22.176 20.412 25.981 3.333 3.812 5.951 6.662 7.854 8.565l7.139 6.851c4.568 4.569 11.276 10.041 20.127 16.416 8.853 6.379 18.654 12.659 29.408 18.85 10.756 6.181 23.269 11.225 37.546 15.126 14.275 3.905 28.169 5.472 41.684 4.716h32.834c6.659-.575 11.704-2.669 15.133-6.283l1.136-1.431c.764-1.136 1.479-2.901 2.139-5.276.668-2.379 1-5 1-7.851-.195-8.183.428-15.558 1.852-22.124 1.423-6.564 3.045-11.513 4.859-14.846 1.813-3.33 3.859-6.14 6.136-8.418 2.282-2.283 3.908-3.666 4.862-4.142.948-.479 1.705-.804 2.276-.999 4.568-1.522 9.944-.048 16.136 4.429 6.187 4.473 11.99 9.996 17.418 16.56 5.425 6.57 11.943 13.941 19.555 22.124 7.617 8.186 14.277 14.271 19.985 18.274l5.708 3.426c3.812 2.286 8.761 4.38 14.853 6.283 6.081 1.902 11.409 2.378 15.984 1.427l73.087-1.14c7.229 0 12.854-1.197 16.844-3.572 3.998-2.379 6.373-5 7.139-7.851.764-2.854.805-6.092.145-9.712-.677-3.611-1.344-6.136-2.008-7.563z"/></svg></svg>