<?xml version="1.0" encoding="utf-8"?><svg viewBox="0 0 800 800" xmlns="http://www.w3.org/2000/svg" xmlns:xlink="http://www.w3.org/1999/xlink"><style>:root>svg{display:none}:root>svg:target{display:block}</style><svg viewBox="0 0 471.936 471.936" id="cup" xmlns="http://www.w3.org/2000/svg"><path d="M159.542 73.447a5 5 0 0 0 4.278-5.63 432.32 432.32 0 0 1-1.563-12.912 5 5 0 0 0-9.945 1.053 445.798 445.798 0 0 0 1.601 13.211 5 5 0 0 0 5.629 4.278zm7.617 14.883a4.999 4.999 0 1 0-9.824 1.866c6.26 32.958 16.182 61.961 28.691 83.873a4.996 4.996 0 0 0 6.821 1.863 5 5 0 0 0 1.863-6.821c-11.968-20.963-21.494-48.896-27.551-80.781zm111.261 88.707a5 5 0 0 0-6.947 1.317c-11.494 16.875-24.104 26.169-35.504 26.169a5 5 0 1 0 0 10c15.025 0 30.16-10.561 43.77-30.54a5 5 0 0 0-1.319-6.946zm36.759-126.578a5 5 0 0 0-5.499 4.445c-4.411 41.639-14.199 78.455-28.307 106.467a5 5 0 0 0 8.932 4.498c14.644-29.079 24.782-67.085 29.32-109.912a5 5 0 0 0-4.446-5.498zm1.051-13.107a5 5 0 0 0 5.269-4.715c.211-3.792.38-7.654.501-11.478a5 5 0 0 0-4.838-5.157c-2.769-.072-5.068 2.079-5.156 4.838-.12 3.745-.285 7.527-.491 11.241a5 5 0 0 0 4.715 5.271z"/><path d="M404.518 25.437h-58.16a5 5 0 0 0-5 5v8.648c0 3.788-1.975 7.167-4.944 9.154A503.072 503.072 0 0 0 338.258 5a5 5 0 0 0-5-5h-194.58a5 5 0 0 0-5 5c0 14.677.626 29.14 1.844 43.239-2.969-1.987-4.944-5.365-4.944-9.154v-8.648a5 5 0 0 0-5-5h-58.16a5 5 0 0 0-5 5v8.648c0 38.371 7.211 68.81 22.046 93.056 19.151 31.289 51.085 51.947 94.917 61.44 9.356 13.62 19.667 23.666 30.593 29.811-3.669 2.646-6.071 6.945-6.071 11.804 0 7.291 5.394 13.33 12.397 14.379-.639 5.08-1.221 10.134-1.786 15.056-3.618 31.532-7.046 61.358-24.509 82.781h-5.603a5 5 0 0 0-5 5v11h-18.297a5 5 0 0 0-5 5v77.523H144.66a5 5 0 0 0-5 5v16a5 5 0 0 0 5 5h182.616a5 5 0 0 0 5-5v-16a5 5 0 0 0-5-5h-11.445v-77.523a5 5 0 0 0-5-5h-18.297v-11a5 5 0 0 0-5-5h-5.602c-17.464-21.424-20.892-51.252-24.51-82.786-.564-4.921-1.146-9.973-1.785-15.051 7.003-1.049 12.397-7.088 12.397-14.379 0-4.859-2.402-9.158-6.072-11.804 10.927-6.145 21.237-16.192 30.593-29.811 43.831-9.493 75.765-30.152 94.917-61.441 14.834-24.246 22.045-54.684 22.045-93.055v-8.648a4.998 4.998 0 0 0-4.999-5zM332.98 77.303c14.896-1.028 27.869-10.685 33.163-24.57h15.722c-1.437 26.736-7.235 48.092-17.674 65.158-11.81 19.297-29.41 33.159-53.605 42.163 10.199-23.947 17.773-52.129 22.394-82.751zm-171.628 82.752c-24.195-9.004-41.796-22.866-53.604-42.162C97.309 100.827 91.51 79.47 90.072 52.734h15.723c5.293 13.885 18.266 23.542 33.162 24.57 4.621 30.621 12.194 58.803 22.395 82.751zm-68.359-33.134c-13.845-22.629-20.575-51.36-20.575-87.836v-3.648h48.161v3.648c0 9.774 6.88 18.132 16.047 20.397.282 2.55.59 5.082.911 7.604-11.047-1.604-20.324-9.635-23.284-20.651a5 5 0 0 0-4.829-3.703h-24.57a5 5 0 0 0-4.997 5.161c.998 30.945 7.331 55.548 19.361 75.217 14.507 23.705 36.744 39.873 67.884 49.415 1.546 3.1 3.127 6.092 4.746 8.957-36.106-9.685-62.6-28.006-78.855-54.561zm229.283 335.015H149.66v-6h172.616v6zm-16.445-16H166.105v-72.523h139.726v72.523zm-116.429-82.523v-6h93.132v6h-93.132zm13.04-16a88.185 88.185 0 0 0 3.792-6.217h59.469a87.957 87.957 0 0 0 3.792 6.217h-67.053zm58.441-16.218h-49.83c8.125-19.538 10.712-42.033 13.395-65.423.602-5.241 1.224-10.631 1.91-16.018h19.221c.686 5.385 1.309 10.773 1.909 16.012 2.684 23.394 5.268 45.89 13.395 65.429zm-7.406-91.441h-35.019c-2.513 0-4.557-2.044-4.557-4.557s2.044-4.557 4.557-4.557h35.019c2.513 0 4.558 2.044 4.558 4.557s-2.045 4.557-4.558 4.557zm-17.508-19.231c-23.886 0-46.692-21.879-64.22-61.608C154.167 119.063 144.257 66.348 143.703 10h184.531c-.555 56.347-10.464 109.063-28.046 148.916-17.527 39.728-40.334 61.607-64.219 61.607zM399.518 39.085c0 36.476-6.73 65.207-20.574 87.835-16.255 26.556-42.75 44.876-78.855 54.564 1.619-2.865 3.2-5.857 4.746-8.957 31.14-9.543 53.377-25.71 67.885-49.416 12.03-19.668 18.362-44.272 19.359-75.216a4.996 4.996 0 0 0-4.997-5.161h-24.569a5 5 0 0 0-4.829 3.702c-2.96 11.015-12.239 19.046-23.284 20.651.321-2.522.629-5.054.911-7.604 9.167-2.265 16.047-10.623 16.047-20.397v-3.648h48.16v3.647z"/><path d="M266.969 387.174h-62a5 5 0 0 0-5 5v35a5 5 0 0 0 5 5h62a5 5 0 0 0 5-5v-35a5 5 0 0 0-5-5zm-5 35h-52v-25h52v25zm-73.498-43.761h-14a5 5 0 1 0 0 10h14a5 5 0 1 0 0-10zm87 33a5 5 0 0 0 5 5h14a5 5 0 1 0 0-10h-14a5 5 0 0 0-5 5zm-94 17h-7a5 5 0 1 0 0 10h7a5 5 0 1 0 0-10z"/></svg><svg viewBox="-9 0 274 274" preserveAspectRatio="xMidYMid" id="google" xmlns="http://www.w3.org/2000/svg"><path d="M188.813 178.875c32.46-17.823 57.067-31.404 59.188-32.46 6.785-3.608 13.792-13.158 0-20.576-4.453-2.333-28.428-15.491-59.188-32.46l-42.642 43.065 42.642 42.43z" fill="#FFD900"/><path d="M146.171 136.444 10.394 273.287c3.187.422 6.785-.423 11.027-2.755 8.906-4.875 103.318-56.434 167.392-91.647l-42.642-42.441z" fill="#F43249"/><path d="m146.171 136.444 42.642-42.853S30.971 7.45 21.421 2.365C17.823.234 13.791-.399 10.183.234l135.988 136.21z" fill="#00EE76"/><path d="M146.171 136.444 10.183.234C4.664 1.51 0 6.386 0 16.358v240.805c0 9.127 3.609 15.701 10.394 16.335l135.777-137.054z" fill="#00D3FF"/></svg><svg viewBox="0 0 336.034 336.034" id="house4" xmlns="http://www.w3.org/2000/svg"><path d="m328.777 156.946-143.24-143.28c-9.69-9.641-25.35-9.641-35.04 0L7.257 156.946c-9.676 9.676-9.676 25.364 0 35.04s25.364 9.676 35.04 0l9.72-9.8v131.32c.432 9.218 8.219 16.362 17.44 16h47.52a4 4 0 0 0 4-4v-77.84c.003-25.979 21.066-47.037 47.046-47.034 25.975.003 47.031 21.059 47.034 47.034v77.92a4 4 0 0 0 4 4h47.44c9.221.362 17.008-6.782 17.44-16v-131.4l9.8 9.8c9.676 9.676 25.364 9.676 35.04 0s9.676-25.364 0-35.04zm-52.76 156.56a8.84 8.84 0 0 1-9.44 8h-43.52v-73.84c0-30.398-24.642-55.04-55.04-55.04s-55.04 24.642-55.04 55.04v73.92h-43.48a8.84 8.84 0 0 1-9.44-8v-139.4l108-108 108 108-.04 139.32zm47.16-127.2c-6.556 6.535-17.164 6.535-23.72 0l-16.64-16.6-112-112a4 4 0 0 0-5.64 0l-112 112-16.6 16.6c-6.55 6.55-17.17 6.55-23.72 0-6.55-6.55-6.55-17.17 0-23.72l143.16-143.24c6.565-6.513 17.155-6.513 23.72 0l143.24 143.24c6.579 6.512 6.651 17.12.16 23.72h.04z"/></svg><svg viewBox="-60 0 432 432" id="lock" xmlns="http://www.w3.org/2000/svg"><path d="M184.035 208c-53.02 0-96 42.98-96 96s42.98 96 96 96 96-42.98 96-96c-.058-52.996-43.008-95.941-96-96zm0 176c-44.183 0-80-35.816-80-80s35.817-80 80-80c44.18 0 80 35.816 80 80-.05 44.164-35.84 79.953-80 80zm0 0"/><path d="M232.035 280c-.055-14.547-9.918-27.227-24-30.863V240h-16v8h-16v-8h-16v8h-8c-4.422 0-8 3.582-8 8v96c0 4.418 3.578 8 8 8h8v8h16v-8h16v8h16v-9.137a31.739 31.739 0 0 0 23.153-23.496A31.742 31.742 0 0 0 220.976 304a31.801 31.801 0 0 0 11.058-24zm-16 48c0 8.836-7.164 16-16 16h-40v-32h40c8.836 0 16 7.164 16 16zm-56-32v-32h40c8.836 0 16 7.164 16 16s-7.164 16-16 16zm0 0"/><path d="M192.035 432v-.406c52.75-3.219 98.082-38.578 114.035-88.965 15.957-50.383-.754-105.39-42.035-138.39V112c0-61.855-50.144-112-112-112-61.86 0-112 50.145-112 112v99.2c-38.086 36-50.351 91.59-30.95 140.269C28.489 400.152 75.63 432.066 128.036 432zm104-128c0 61.855-50.144 112-112 112-61.86 0-112-50.145-112-112s50.14-112 112-112c61.828.066 111.934 50.172 112 112zm-168-128a125.85 125.85 0 0 0-32 4.16V112c0-30.93 25.07-56 56-56 30.926 0 56 25.07 56 56v66.336a127.589 127.589 0 0 0-24-2.336zm24-160c52.992.059 95.942 43.004 96 96v81.32a127.567 127.567 0 0 0-24-10.832V112c0-39.766-32.238-72-72-72-39.765 0-72 32.234-72 72v80c0 8.836-7.164 16-16 16h-8v-96c.055-52.996 43.004-95.941 96-96zm-136 288a111.926 111.926 0 0 1 34.024-80h13.976c15.688-.055 29.02-11.477 31.485-26.969a111.565 111.565 0 0 1 26.234-4.758c-40.55 22.543-65.7 65.286-65.719 111.68-.015 46.395 25.106 89.156 65.637 111.727C62.449 412.29 16.132 363.32 16.035 304zm0 0"/></svg><svg fill="#fff" viewBox="0 0 95.481 95.481" id="ok" xmlns="http://www.w3.org/2000/svg"><path d="M43.041 67.254c-7.402-.772-14.076-2.595-19.79-7.064-.709-.556-1.441-1.092-2.088-1.713-2.501-2.402-2.753-5.153-.774-7.988 1.693-2.426 4.535-3.075 7.489-1.682.572.27 1.117.607 1.639.969 10.649 7.317 25.278 7.519 35.967.329 1.059-.812 2.191-1.474 3.503-1.812 2.551-.655 4.93.282 6.299 2.514 1.564 2.549 1.544 5.037-.383 7.016-2.956 3.034-6.511 5.229-10.461 6.761-3.735 1.448-7.826 2.177-11.875 2.661.611.665.899.992 1.281 1.376 5.498 5.524 11.02 11.025 16.5 16.566 1.867 1.888 2.257 4.229 1.229 6.425-1.124 2.4-3.64 3.979-6.107 3.81-1.563-.108-2.782-.886-3.865-1.977-4.149-4.175-8.376-8.273-12.441-12.527-1.183-1.237-1.752-1.003-2.796.071-4.174 4.297-8.416 8.528-12.683 12.735-1.916 1.889-4.196 2.229-6.418 1.15-2.362-1.145-3.865-3.556-3.749-5.979.08-1.639.886-2.891 2.011-4.014 5.441-5.433 10.867-10.88 16.295-16.322.359-.362.694-.746 1.217-1.305z"/><path d="M47.55 48.329c-13.205-.045-24.033-10.992-23.956-24.218C23.67 10.739 34.505-.037 47.84 0c13.362.036 24.087 10.967 24.02 24.478-.068 13.199-10.971 23.897-24.31 23.851zm12.001-24.186c-.023-6.567-5.253-11.795-11.807-11.801-6.609-.007-11.886 5.316-11.835 11.943.049 6.542 5.324 11.733 11.896 11.709 6.552-.023 11.768-5.285 11.746-11.851z"/></svg><svg viewBox="0 0 463 463" id="question" xmlns="http://www.w3.org/2000/svg"><path d="M394.772 75.678C351.106 38.25 293.122 17.637 231.5 17.637S111.894 38.25 68.228 75.678C24.23 113.39 0 163.628 0 217.137c0 28.338 6.758 55.719 20.086 81.382 12.01 23.125 28.771 43.786 49.863 61.481-9.162 22.863-22.082 48.781-29.275 62.77-2.793 5.431-2.201 11.796 1.544 16.611 2.992 3.845 7.438 5.981 12.137 5.981 1.176 0 2.367-.134 3.556-.408 22.876-5.274 66.354-17.079 104.111-37.51 22.517 6.101 45.875 9.192 69.479 9.192 61.622 0 119.606-20.613 163.272-58.041C438.77 320.884 463 270.646 463 217.137S438.77 113.39 394.772 75.678zM231.5 401.637c-23.263 0-46.265-3.179-68.366-9.45a7.503 7.503 0 0 0-5.693.662c-36.755 20.451-80.246 32.267-102.899 37.49-.155.036-.3.068-.483-.167-.194-.25-.114-.404-.044-.541 9.609-18.688 22.946-45.878 31.915-69.293a7.5 7.5 0 0 0-2.325-8.544c-21.473-17.137-38.364-37.387-50.205-60.188C21.19 268.1 15 243.045 15 217.137c0-101.733 97.121-184.5 216.5-184.5S448 115.404 448 217.137s-97.121 184.5-216.5 184.5z"/><path d="M231.5 322.637c-7.995 0-14.5 6.505-14.5 14.5s6.505 14.5 14.5 14.5 14.5-6.505 14.5-14.5-6.505-14.5-14.5-14.5zm0-225c-57.07 0-103.5 39.252-103.5 87.5 0 13.58 3.571 26.593 10.614 38.678a7.499 7.499 0 1 0 12.959-7.552C145.885 206.5 143 196.028 143 185.137c0-39.977 39.701-72.5 88.5-72.5s88.5 32.523 88.5 72.5c0 17.209-7.52 33.905-21.175 47.011-13.834 13.279-32.963 22.035-53.862 24.653C233.012 258.3 224 268.328 224 280.129v17.008c0 4.142 3.357 7.5 7.5 7.5s7.5-3.358 7.5-7.5v-17.008c0-4.324 3.292-7.875 7.828-8.443 24.081-3.018 46.236-13.216 62.385-28.715C325.842 227.009 335 206.47 335 185.137c0-48.247-46.43-87.5-103.5-87.5z"/></svg><svg viewBox="0 0 340 340" id="reg" xmlns="http://www.w3.org/2000/svg"><path d="M146.86 158.65a76.325 76.325 0 1 0-76.325-76.325 76.411 76.411 0 0 0 76.325 76.325zm0-144.65a68.325 68.325 0 1 1-68.325 68.325A68.4 68.4 0 0 1 146.86 14z"/><path d="M146.86 178.1a54.062 54.062 0 0 1 47.645 28.454 4 4 0 0 0 7.042-3.8 62.1 62.1 0 0 0-116.623 25l-7.316 101.96A4 4 0 0 0 81.6 334h79.3a4 4 0 1 0 0-8h-75l7-97.674a54.29 54.29 0 0 1 53.96-50.226zm-12.575-47.322a54.056 54.056 0 0 0 25.15 0c20.736-4.982 30-19.363 34.113-30.551a13.918 13.918 0 0 0-1.636-12.764 12.749 12.749 0 0 0-10.544-5.606h-69.016a12.749 12.749 0 0 0-10.544 5.606 13.918 13.918 0 0 0-1.636 12.764c4.117 11.188 13.377 25.573 34.113 30.551zM108.369 92.04a4.857 4.857 0 0 1 3.983-2.183h69.016a4.857 4.857 0 0 1 3.983 2.183 5.914 5.914 0 0 1 .689 5.424c-3.442 9.356-11.177 21.38-28.474 25.536a46.06 46.06 0 0 1-21.412 0c-17.3-4.156-25.032-16.18-28.474-25.536a5.914 5.914 0 0 1 .689-5.424z"/><path d="M154.78 276.658a57.343 57.343 0 1 0 57.342-57.343 57.407 57.407 0 0 0-57.342 57.343zm106.685 0a49.343 49.343 0 1 1-49.343-49.343 49.4 49.4 0 0 1 49.343 49.343z"/><path d="M208.122 264.937v7.721H200.4a4 4 0 0 0 0 8h7.721v7.72a4 4 0 0 0 8 0v-7.72h7.721a4 4 0 0 0 0-8h-7.721v-7.721a4 4 0 0 0-8 0zm-83.35-202.423a4 4 0 0 0 4-4v-2.99a4 4 0 1 0-8 0v2.99a4 4 0 0 0 4 4zm44.176 0a4 4 0 0 0 4-4v-2.99a4 4 0 0 0-8 0v2.99a4 4 0 0 0 4 4z"/></svg><svg viewBox="0 0 459.91 154.57" id="spicy" xmlns="http://www.w3.org/2000/svg"><defs><linearGradient id="ha" y1="66.51" x2="66.06" y2="66.51" gradientUnits="userSpaceOnUse"><stop offset="0" stop-color="#e322be"/><stop offset="1" stop-color="#c527b9"/></linearGradient><linearGradient id="hb" x1="459.91" y1="110.67" x2="37.96" y2="110.67" gradientUnits="userSpaceOnUse"><stop offset=".17" stop-color="#5822cf"/><stop offset=".73" stop-color="#c027ba"/><stop offset="1" stop-color="#c527b9"/></linearGradient></defs><g data-name="Слой 2"><g data-name="Слой 1"><path d="M85.44 3.66c.7-2.47 3-4.66 5.64-3.18 3.24 2.75 2.76 7.5 3.1 11.32-.53 6-4.1 12.12-9.91 14.43-3.73 1.62-1.14 6.46-2 9.55-1.58 7.16-5.33 14.51-12 18.13-6.78-7.18-4.42-17.94-1.1-26.18-4.49-3.15-9.17-6.51-11.69-11.51-2.07-3.26-2-7.26-2.21-11 6.86.26 13.82 2.45 18.84 7.3a43.77 43.77 0 0 1 6.31 8.2c1.81-1.67 3.92-3.11 5.3-5.18a14.77 14.77 0 0 0-.28-11.9z" fill="#602cd0"/><path d="M31.48 14.41c6-3.76 12.49-7.11 19.46-8.7-.38 9.6 5.17 18.32 13 23.47a86.15 86.15 0 0 0-2.31 11.68c-.25 5.5 2 10.63 4.41 15.46-8.4 2.72-16.57 6.5-23.27 12.36a47.64 47.64 0 0 0-12.4 25 76.69 76.69 0 0 0 3.47 29.17c.75 1.7-1 3.07-1.66 4.47l-3.18-.2C15.67 118.65 5.44 105.23 1.86 89.8-1.77 75.36.2 60.07 5.29 46.24a65.72 65.72 0 0 1 13.88-21.17c3.19-4.52 8.06-7.29 12.31-10.66" fill="url(#ha)"/><path d="M102.7 70.87c8-2.29 16.32-4.83 24.7-3.38a16.16 16.16 0 0 1 12.6 10.4c5.22 15.48-1.63 34.12-15.87 42.23-3.83 2.35-8.35 2.95-12.75 3.3-2 8.7-3.33 17.53-4.66 26.35-6.87 1.45-13.75 2.83-20.67 4 6.24-27.49 12.22-55.06 16.61-82.91M116.25 98c-.66 4.27-2 8.46-2 12.81 8.09-4.7 12.11-14.92 10.52-24-.47-2.8-3-4.36-5.17-5.79-1.6 5.56-2.21 11.31-3.35 16.98M47.86 85.84C54.19 76.31 65 70.58 76 68.38c6.14-.79 13.61-.72 18 4.33 3.85 4.51 3 10.83 2.19 16.24-5.69 1.79-11.43 3.36-17.15 5 .22-3.07 1.23-6.77-1.14-9.3-2.56-2.59-6.2 0-8.31 1.92A7 7 0 0 0 69 96.79c4.23 4.54 10.65 6.43 14.47 11.42 4.68 6 5.65 14.21 4.55 21.59A27.69 27.69 0 0 1 74.94 149c-5.36 3.5-11.83 4.56-18 5.57a26.41 26.41 0 0 1-16.66-8.18c-1-1.25-3.14-2.48-1.95-4.28 2.46-5.4 5.4-10.59 8.11-15.88a23.56 23.56 0 0 0 11.1 8.07c3.88 1.26 8.73-.26 10.84-3.85 1.27-2.54.36-5.65-1.36-7.75-5.71-7-14.83-10.46-20-18-3.95-5.59-2.69-13.38.88-18.84zM190.2 70.6c3.11 5.66 4.65 12 7.69 17.7 1 1.18 2.17 2.25 3.3 3.34 5.09-1.33 10.14-2.81 15.29-3.93.66-6-.48-13-5.56-16.94-5.93-4.68-14.35-3.06-20.72-.17zm26.47 4.05c1.17 15 2.24 30 2.69 45.1 1 11.06-3.51 21.51-5.28 32.26 6.79-.85 13.58-1.64 20.36-2.58 1.11-4.25 2.35-8.46 3.4-12.73 1-3.87 1.48-7.93 3.3-11.54q5.3-10.83 10.51-21.69a102.28 102.28 0 0 1-8.3-20.72c-2.48 6.67-4.84 13.37-7.22 20.08-.27-11.85.23-23.71 0-35.56-6.51 2.36-13 4.88-19.44 7.38zm62.78-2.88a155 155 0 0 0 7 18.26 13.35 13.35 0 0 1 3.39-1.22c1.42.45 2.2 1.85 3.25 2.81 5.08-1.3 10.13-2.74 15.24-4 .78-6.65-.9-14.52-7.18-18-6.88-3.68-15.16-1.09-21.69 2.15zm38.72-1.44a306.77 306.77 0 0 0 32.57-3.56c-2.33 27.82-3 55.75-4.34 83.63-6.7 1-13.41 2-20.11 3.07.78-6.55 1.52-13.11 2.16-19.67q-5.06-.09-10.09.16c-1.38 5.57-3 11.07-4.58 16.58l-2.87.36c-3.29-7.83-6.54-15.68-9.36-23.68.07-2.34 1-4.53 1.66-6.75 5.11-16.68 9.9-33.45 15-50.14m13.14 12.78c-3.59 12.81-6.65 25.8-9.91 38.71q4.05-.31 8.11-.53c1.12-13 2.35-26.06 3.31-39.1l-1.51.92zm55-14.76c5.44-.66 11.59-.65 16.19 2.74 5.25 4.21 5.43 12 3.55 17.9-5.54 1.94-11.28 3.3-16.89 5 .22-2.69 1.11-5.65-.3-8.15-.75-1.36-2.3-2.67-3.95-2.23a11.91 11.91 0 0 0-6.95 5.21c-1.7 2.7-.68 6.34 1.53 8.42 4.46 4.35 10.87 6.38 14.55 11.6 5 7 5.32 16.44 3.26 24.57-3.93 13.18-18.06 21.3-31.42 20.47-7.44.09-13.58-4.93-18.16-10.3 2.63-5.82 5.82-11.36 8.54-17.13 3.49 3.62 7.6 6.93 12.57 8.16 4.36.73 10.12-1.82 10.32-6.79-.29-3.89-3.2-6.84-6-9.2-5.65-4.64-12.37-8.32-16.45-14.59-3.88-6.23-1.8-14.45 2.49-19.93 6.55-8.53 16.73-13.75 27.16-15.75m55.61.44a159 159 0 0 1 18-1.73 25.7 25.7 0 0 1-.77 6.71c-3.39 12.5-5.8 25.24-8 38-2.05 12.27-4.32 24.51-5.81 36.87-6.21 1-12.49 1.52-18.73 2.25C429 139 431.32 127 433.67 115.1c-3.75.35-7.5.69-11.24 1.07-2.05 11.27-4.14 22.56-6.54 33.76-6 1.83-12.25 2.65-18.35 4 5.54-28.53 11.61-57 14.91-85.91 6.45.41 12.89.86 19.36.83-2.58 11.09-5.22 22.17-7.48 33.33 3.8-.39 7.59-.85 11.37-1.35 2-10.7 3.53-21.51 6.23-32.07zm-292.85 2.63c-1.46 7.64-3.11 15.27-4.19 23 4.15 9.53 7.69 19.32 11.85 28.86 3.79-18.15 7.32-36.37 10.74-54.59-6.14.87-12.24 2-18.4 2.75zm98.92-2.68c-1.49 4.7-3.31 9.29-4.72 14a102.28 102.28 0 0 0 8.3 20.72c4.93-10.3 10.2-20.44 14.93-30.82-6.18-1.24-12.3-2.82-18.51-3.91zm-77.64 21.61a79.32 79.32 0 0 0-9.43 40.53c.34 7.42 2.39 15.6 8.51 20.38 5.23 4 12.54 3.21 18.06.23 9.1-4.86 15.21-13.78 19.33-23-4.48-2-9.08-3.7-13.61-5.54-1.59 4-3.81 8.18-7.74 10.36-1.64 1.09-4.14 1.13-5.17-.79-1.51-3.8-.53-8.05.22-11.92 2.39-9.41 5.65-18.79 11.09-26.9a15.33 15.33 0 0 1 6.24-5.4c-3-5.69-4.58-12-7.69-17.7l-.12-.25a50.47 50.47 0 0 0-19.65 20zm96.26-6.72c-10.38 14-14.71 32-13.68 49.27.49 6.57 2.66 13.52 7.82 17.93s13 3.54 18.7.61c9-4.94 15.11-13.8 19.23-23-4.49-1.91-9.05-3.65-13.57-5.5-1.81 4.14-4.07 8.6-8.35 10.64a3.36 3.36 0 0 1-4.95-1.85c-1.2-4.25 0-8.69 1-12.86 2.88-10.25 6.53-20.66 13.59-28.85a155 155 0 0 1-7-18.26 48.54 48.54 0 0 0-12.76 11.86zM145 94.4c-4.32 19.71-7.4 39.72-12.83 59.19 6.47-.87 12.94-1.88 19.47-2.17 1.7-9.39 3.78-18.73 5.21-28.16-4.16-9.54-7.7-19.33-11.85-28.86zm156.38 32.18c-2.68 8.81-5.37 17.62-8 26.45 5.85-.65 11.71-1.33 17.56-2.13-3.29-7.83-6.54-15.68-9.36-23.68l-.21-.64z" fill="url(#hb)"/></g></g></svg><svg viewBox="0 0 548.358 548.358" id="vk2" xmlns="http://www.w3.org/2000/svg"><path d="M545.451 400.298c-.664-1.431-1.283-2.618-1.858-3.569-9.514-17.135-27.695-38.167-54.532-63.102l-.567-.571-.284-.28-.287-.287h-.288c-12.18-11.611-19.893-19.418-23.123-23.415-5.91-7.614-7.234-15.321-4.004-23.13 2.282-5.9 10.854-18.36 25.696-37.397 7.807-10.089 13.99-18.175 18.556-24.267 32.931-43.78 47.208-71.756 42.828-83.939l-1.701-2.847c-1.143-1.714-4.093-3.282-8.846-4.712-4.764-1.427-10.853-1.663-18.278-.712l-82.224.568c-1.332-.472-3.234-.428-5.712.144l-3.713.859-1.431.715-1.136.859c-.952.568-1.999 1.567-3.142 2.995-1.137 1.423-2.088 3.093-2.848 4.996-8.952 23.031-19.13 44.444-30.553 64.238-7.043 11.803-13.511 22.032-19.418 30.693-5.899 8.658-10.848 15.037-14.842 19.126-4 4.093-7.61 7.372-10.852 9.849-3.237 2.478-5.708 3.525-7.419 3.142-1.715-.383-3.33-.763-4.859-1.143-2.663-1.714-4.805-4.045-6.42-6.995-1.622-2.95-2.714-6.663-3.285-11.136-.568-4.476-.904-8.326-1-11.563-.089-3.233-.048-7.806.145-13.706.198-5.903.287-9.897.287-11.991 0-7.234.141-15.085.424-23.555.288-8.47.521-15.181.716-20.125.194-4.949.284-10.185.284-15.705s-.336-9.849-1-12.991a44.442 44.442 0 0 0-2.99-9.137c-1.335-2.95-3.289-5.232-5.853-6.852-2.569-1.618-5.763-2.902-9.564-3.856-10.089-2.283-22.936-3.518-38.547-3.71-35.401-.38-58.148 1.906-68.236 6.855-3.997 2.091-7.614 4.948-10.848 8.562-3.427 4.189-3.905 6.475-1.431 6.851 11.422 1.711 19.508 5.804 24.267 12.275l1.715 3.429c1.334 2.474 2.666 6.854 3.999 13.134 1.331 6.28 2.19 13.227 2.568 20.837.95 13.897.95 25.793 0 35.689-.953 9.9-1.853 17.607-2.712 23.127-.859 5.52-2.143 9.993-3.855 13.418-1.715 3.426-2.856 5.52-3.428 6.28-.571.76-1.047 1.239-1.425 1.427a21.387 21.387 0 0 1-7.71 1.431c-2.667 0-5.901-1.334-9.707-4-3.805-2.666-7.754-6.328-11.847-10.992-4.093-4.665-8.709-11.184-13.85-19.558-5.137-8.374-10.467-18.271-15.987-29.691l-4.567-8.282c-2.855-5.328-6.755-13.086-11.704-23.267-4.952-10.185-9.329-20.037-13.134-29.554-1.521-3.997-3.806-7.04-6.851-9.134l-1.429-.859c-.95-.76-2.475-1.567-4.567-2.427a30.301 30.301 0 0 0-6.567-1.854l-78.229.568c-7.994 0-13.418 1.811-16.274 5.428l-1.143 1.711c-.571.953-.859 2.475-.859 4.57 0 2.094.571 4.664 1.714 7.707 11.42 26.84 23.839 52.725 37.257 77.659 13.418 24.934 25.078 45.019 34.973 60.237 9.897 15.229 19.985 29.602 30.264 43.112 10.279 13.515 17.083 22.176 20.412 25.981 3.333 3.812 5.951 6.662 7.854 8.565l7.139 6.851c4.568 4.569 11.276 10.041 20.127 16.416 8.853 6.379 18.654 12.659 29.408 18.85 10.756 6.181 23.269 11.225 37.546 15.126 14.275 3.905 28.169 5.472 41.684 4.716h32.834c6.659-.575 11.704-2.669 15.133-6.283l1.136-1.431c.764-1.136 1.479-2.901 2.139-5.276.668-2.379 1-5 1-7.851-.195-8.183.428-15.558 1.852-22.124 1.423-6.564 3.045-11.513 4.859-14.846 1.813-3.33 3.859-6.14 6.136-8.418 2.282-2.283 3.908-3.666 4.862-4.142.948-.479 1.705-.804 2.276-.999 4.568-1.522 9.944-.048 16.136 4.429 6.187 4.473 11.99 9.996 17.418 16.56 5.425 6.57 11.943 13.941 19.555 22.124 7.617 8.186 14.277 14.271 19.985 18.274l5.708 3.426c3.812 2.286 8.761 4.38 14.853 6.283 6.081 1.902 11.409 2.378 15.984 1.427l73.087-1.14c7.229 0 12.854-1.197 16.844-3.572 3.998-2.379 6.373-5 7.139-7.851.764-2.854.805-6.092.145-9.712-.677-3.611-1.344-6.136-2.008-7.563z"/></svg></svg>