<?xml version="1.0" encoding="utf-8"?>
<svg viewBox="0 0 800 800" xmlns="http://www.w3.org/2000/svg" xmlns:xlink="http://www.w3.org/1999/xlink">
    <style>:root>svg{display:none}:root>svg:target{display:block}</style>
    <svg viewBox="0 0 471.936 471.936" id="cup" xmlns="http://www.w3.org/2000/svg">
        <path
            d="M159.542 73.447a5 5 0 0 0 4.278-5.63 432.32 432.32 0 0 1-1.563-12.912 5 5 0 0 0-9.945 1.053 445.798 445.798 0 0 0 1.601 13.211 5 5 0 0 0 5.629 4.278zm7.617 14.883a4.999 4.999 0 1 0-9.824 1.866c6.26 32.958 16.182 61.961 28.691 83.873a4.996 4.996 0 0 0 6.821 1.863 5 5 0 0 0 1.863-6.821c-11.968-20.963-21.494-48.896-27.551-80.781zm111.261 88.707a5 5 0 0 0-6.947 1.317c-11.494 16.875-24.104 26.169-35.504 26.169a5 5 0 1 0 0 10c15.025 0 30.16-10.561 43.77-30.54a5 5 0 0 0-1.319-6.946zm36.759-126.578a5 5 0 0 0-5.499 4.445c-4.411 41.639-14.199 78.455-28.307 106.467a5 5 0 0 0 8.932 4.498c14.644-29.079 24.782-67.085 29.32-109.912a5 5 0 0 0-4.446-5.498zm1.051-13.107a5 5 0 0 0 5.269-4.715c.211-3.792.38-7.654.501-11.478a5 5 0 0 0-4.838-5.157c-2.769-.072-5.068 2.079-5.156 4.838-.12 3.745-.285 7.527-.491 11.241a5 5 0 0 0 4.715 5.271z"/>
        <path
            d="M404.518 25.437h-58.16a5 5 0 0 0-5 5v8.648c0 3.788-1.975 7.167-4.944 9.154A503.072 503.072 0 0 0 338.258 5a5 5 0 0 0-5-5h-194.58a5 5 0 0 0-5 5c0 14.677.626 29.14 1.844 43.239-2.969-1.987-4.944-5.365-4.944-9.154v-8.648a5 5 0 0 0-5-5h-58.16a5 5 0 0 0-5 5v8.648c0 38.371 7.211 68.81 22.046 93.056 19.151 31.289 51.085 51.947 94.917 61.44 9.356 13.62 19.667 23.666 30.593 29.811-3.669 2.646-6.071 6.945-6.071 11.804 0 7.291 5.394 13.33 12.397 14.379-.639 5.08-1.221 10.134-1.786 15.056-3.618 31.532-7.046 61.358-24.509 82.781h-5.603a5 5 0 0 0-5 5v11h-18.297a5 5 0 0 0-5 5v77.523H144.66a5 5 0 0 0-5 5v16a5 5 0 0 0 5 5h182.616a5 5 0 0 0 5-5v-16a5 5 0 0 0-5-5h-11.445v-77.523a5 5 0 0 0-5-5h-18.297v-11a5 5 0 0 0-5-5h-5.602c-17.464-21.424-20.892-51.252-24.51-82.786-.564-4.921-1.146-9.973-1.785-15.051 7.003-1.049 12.397-7.088 12.397-14.379 0-4.859-2.402-9.158-6.072-11.804 10.927-6.145 21.237-16.192 30.593-29.811 43.831-9.493 75.765-30.152 94.917-61.441 14.834-24.246 22.045-54.684 22.045-93.055v-8.648a4.998 4.998 0 0 0-4.999-5zM332.98 77.303c14.896-1.028 27.869-10.685 33.163-24.57h15.722c-1.437 26.736-7.235 48.092-17.674 65.158-11.81 19.297-29.41 33.159-53.605 42.163 10.199-23.947 17.773-52.129 22.394-82.751zm-171.628 82.752c-24.195-9.004-41.796-22.866-53.604-42.162C97.309 100.827 91.51 79.47 90.072 52.734h15.723c5.293 13.885 18.266 23.542 33.162 24.57 4.621 30.621 12.194 58.803 22.395 82.751zm-68.359-33.134c-13.845-22.629-20.575-51.36-20.575-87.836v-3.648h48.161v3.648c0 9.774 6.88 18.132 16.047 20.397.282 2.55.59 5.082.911 7.604-11.047-1.604-20.324-9.635-23.284-20.651a5 5 0 0 0-4.829-3.703h-24.57a5 5 0 0 0-4.997 5.161c.998 30.945 7.331 55.548 19.361 75.217 14.507 23.705 36.744 39.873 67.884 49.415 1.546 3.1 3.127 6.092 4.746 8.957-36.106-9.685-62.6-28.006-78.855-54.561zm229.283 335.015H149.66v-6h172.616v6zm-16.445-16H166.105v-72.523h139.726v72.523zm-116.429-82.523v-6h93.132v6h-93.132zm13.04-16a88.185 88.185 0 0 0 3.792-6.217h59.469a87.957 87.957 0 0 0 3.792 6.217h-67.053zm58.441-16.218h-49.83c8.125-19.538 10.712-42.033 13.395-65.423.602-5.241 1.224-10.631 1.91-16.018h19.221c.686 5.385 1.309 10.773 1.909 16.012 2.684 23.394 5.268 45.89 13.395 65.429zm-7.406-91.441h-35.019c-2.513 0-4.557-2.044-4.557-4.557s2.044-4.557 4.557-4.557h35.019c2.513 0 4.558 2.044 4.558 4.557s-2.045 4.557-4.558 4.557zm-17.508-19.231c-23.886 0-46.692-21.879-64.22-61.608C154.167 119.063 144.257 66.348 143.703 10h184.531c-.555 56.347-10.464 109.063-28.046 148.916-17.527 39.728-40.334 61.607-64.219 61.607zM399.518 39.085c0 36.476-6.73 65.207-20.574 87.835-16.255 26.556-42.75 44.876-78.855 54.564 1.619-2.865 3.2-5.857 4.746-8.957 31.14-9.543 53.377-25.71 67.885-49.416 12.03-19.668 18.362-44.272 19.359-75.216a4.996 4.996 0 0 0-4.997-5.161h-24.569a5 5 0 0 0-4.829 3.702c-2.96 11.015-12.239 19.046-23.284 20.651.321-2.522.629-5.054.911-7.604 9.167-2.265 16.047-10.623 16.047-20.397v-3.648h48.16v3.647z"/>
        <path
            d="M266.969 387.174h-62a5 5 0 0 0-5 5v35a5 5 0 0 0 5 5h62a5 5 0 0 0 5-5v-35a5 5 0 0 0-5-5zm-5 35h-52v-25h52v25zm-73.498-43.761h-14a5 5 0 1 0 0 10h14a5 5 0 1 0 0-10zm87 33a5 5 0 0 0 5 5h14a5 5 0 1 0 0-10h-14a5 5 0 0 0-5 5zm-94 17h-7a5 5 0 1 0 0 10h7a5 5 0 1 0 0-10z"/>
    </svg>
    <svg viewBox="0 0 24 24" fill="none" id="house" xmlns="http://www.w3.org/2000/svg">
        <path
            d="M5 9.777V16.2c0 1.68 0 2.52.327 3.162a3 3 0 0 0 1.311 1.311C7.28 21 8.12 21 9.8 21h4.4c1.68 0 2.52 0 3.162-.327a3 3 0 0 0 1.311-1.311C19 18.72 19 17.88 19 16.2V5m2 7-5.433-6.036c-1.236-1.373-1.854-2.06-2.581-2.313a3 3 0 0 0-1.974 0c-.728.254-1.345.94-2.58 2.314L3 12m11 9v-6h-4v6"
            stroke="#000" stroke-width="2" stroke-linecap="round" stroke-linejoin="round"/>
    </svg>
    <svg viewBox="0 0 16 16" id="question" xmlns="http://www.w3.org/2000/svg">
        <path
            d="M8 .5A7.77 7.77 0 0 0 0 8a7.77 7.77 0 0 0 8 7.5A7.77 7.77 0 0 0 16 8 7.77 7.77 0 0 0 8 .5zm0 13.75A6.52 6.52 0 0 1 1.25 8 6.52 6.52 0 0 1 8 1.75 6.52 6.52 0 0 1 14.75 8 6.52 6.52 0 0 1 8 14.25z"/>
        <circle cx="7.98" cy="10.95" r=".76"/>
        <path
            d="M9.73 4.75A2.72 2.72 0 0 0 8 4.19a2.28 2.28 0 0 0-2.41 2.17v.11h1.24v-.1A1.12 1.12 0 0 1 8 5.33a1 1 0 0 1 1.12 1c0 .35-.24.73-.78 1.11a2 2 0 0 0-1 1.46v.36h1.24V9a.76.76 0 0 1 .23-.51A3.92 3.92 0 0 1 9.33 8l.17-.14a2 2 0 0 0 .91-1.67 1.85 1.85 0 0 0-.68-1.44z"/>
    </svg>
    <svg viewBox="0 0 24 24" fill="none" id="reg" xmlns="http://www.w3.org/2000/svg">
        <path
            d="M10 4a4 4 0 1 0 0 8 4 4 0 0 0 0-8zM4 8a6 6 0 1 1 12 0A6 6 0 0 1 4 8zm15 3a1 1 0 0 1 1 1v1h1a1 1 0 1 1 0 2h-1v1a1 1 0 1 1-2 0v-1h-1a1 1 0 1 1 0-2h1v-1a1 1 0 0 1 1-1zM6.5 18C5.24 18 4 19.213 4 21a1 1 0 1 1-2 0c0-2.632 1.893-5 4.5-5h7c2.607 0 4.5 2.368 4.5 5a1 1 0 1 1-2 0c0-1.787-1.24-3-2.5-3h-7z"
            fill="#0D0D0D"/>
    </svg>
    <svg viewBox="0 0 459.91 154.57" id="spicy" xmlns="http://www.w3.org/2000/svg">
        <defs>
            <linearGradient id="ea" y1="66.51" x2="66.06" y2="66.51" gradientUnits="userSpaceOnUse">
                <stop offset="0" stop-color="#e322be"/>
                <stop offset="1" stop-color="#c527b9"/>
            </linearGradient>
            <linearGradient id="eb" x1="459.91" y1="110.67" x2="37.96" y2="110.67" gradientUnits="userSpaceOnUse">
                <stop offset=".17" stop-color="#5822cf"/>
                <stop offset=".73" stop-color="#c027ba"/>
                <stop offset="1" stop-color="#c527b9"/>
            </linearGradient>
        </defs>
        <g data-name="Слой 2">
            <g data-name="Слой 1">
                <path
                    d="M85.44 3.66c.7-2.47 3-4.66 5.64-3.18 3.24 2.75 2.76 7.5 3.1 11.32-.53 6-4.1 12.12-9.91 14.43-3.73 1.62-1.14 6.46-2 9.55-1.58 7.16-5.33 14.51-12 18.13-6.78-7.18-4.42-17.94-1.1-26.18-4.49-3.15-9.17-6.51-11.69-11.51-2.07-3.26-2-7.26-2.21-11 6.86.26 13.82 2.45 18.84 7.3a43.77 43.77 0 0 1 6.31 8.2c1.81-1.67 3.92-3.11 5.3-5.18a14.77 14.77 0 0 0-.28-11.9z"
                    fill="#602cd0"/>
                <path
                    d="M31.48 14.41c6-3.76 12.49-7.11 19.46-8.7-.38 9.6 5.17 18.32 13 23.47a86.15 86.15 0 0 0-2.31 11.68c-.25 5.5 2 10.63 4.41 15.46-8.4 2.72-16.57 6.5-23.27 12.36a47.64 47.64 0 0 0-12.4 25 76.69 76.69 0 0 0 3.47 29.17c.75 1.7-1 3.07-1.66 4.47l-3.18-.2C15.67 118.65 5.44 105.23 1.86 89.8-1.77 75.36.2 60.07 5.29 46.24a65.72 65.72 0 0 1 13.88-21.17c3.19-4.52 8.06-7.29 12.31-10.66"
                    fill="url(#ea)"/>
                <path
                    d="M102.7 70.87c8-2.29 16.32-4.83 24.7-3.38a16.16 16.16 0 0 1 12.6 10.4c5.22 15.48-1.63 34.12-15.87 42.23-3.83 2.35-8.35 2.95-12.75 3.3-2 8.7-3.33 17.53-4.66 26.35-6.87 1.45-13.75 2.83-20.67 4 6.24-27.49 12.22-55.06 16.61-82.91M116.25 98c-.66 4.27-2 8.46-2 12.81 8.09-4.7 12.11-14.92 10.52-24-.47-2.8-3-4.36-5.17-5.79-1.6 5.56-2.21 11.31-3.35 16.98M47.86 85.84C54.19 76.31 65 70.58 76 68.38c6.14-.79 13.61-.72 18 4.33 3.85 4.51 3 10.83 2.19 16.24-5.69 1.79-11.43 3.36-17.15 5 .22-3.07 1.23-6.77-1.14-9.3-2.56-2.59-6.2 0-8.31 1.92A7 7 0 0 0 69 96.79c4.23 4.54 10.65 6.43 14.47 11.42 4.68 6 5.65 14.21 4.55 21.59A27.69 27.69 0 0 1 74.94 149c-5.36 3.5-11.83 4.56-18 5.57a26.41 26.41 0 0 1-16.66-8.18c-1-1.25-3.14-2.48-1.95-4.28 2.46-5.4 5.4-10.59 8.11-15.88a23.56 23.56 0 0 0 11.1 8.07c3.88 1.26 8.73-.26 10.84-3.85 1.27-2.54.36-5.65-1.36-7.75-5.71-7-14.83-10.46-20-18-3.95-5.59-2.69-13.38.88-18.84zM190.2 70.6c3.11 5.66 4.65 12 7.69 17.7 1 1.18 2.17 2.25 3.3 3.34 5.09-1.33 10.14-2.81 15.29-3.93.66-6-.48-13-5.56-16.94-5.93-4.68-14.35-3.06-20.72-.17zm26.47 4.05c1.17 15 2.24 30 2.69 45.1 1 11.06-3.51 21.51-5.28 32.26 6.79-.85 13.58-1.64 20.36-2.58 1.11-4.25 2.35-8.46 3.4-12.73 1-3.87 1.48-7.93 3.3-11.54q5.3-10.83 10.51-21.69a102.28 102.28 0 0 1-8.3-20.72c-2.48 6.67-4.84 13.37-7.22 20.08-.27-11.85.23-23.71 0-35.56-6.51 2.36-13 4.88-19.44 7.38zm62.78-2.88a155 155 0 0 0 7 18.26 13.35 13.35 0 0 1 3.39-1.22c1.42.45 2.2 1.85 3.25 2.81 5.08-1.3 10.13-2.74 15.24-4 .78-6.65-.9-14.52-7.18-18-6.88-3.68-15.16-1.09-21.69 2.15zm38.72-1.44a306.77 306.77 0 0 0 32.57-3.56c-2.33 27.82-3 55.75-4.34 83.63-6.7 1-13.41 2-20.11 3.07.78-6.55 1.52-13.11 2.16-19.67q-5.06-.09-10.09.16c-1.38 5.57-3 11.07-4.58 16.58l-2.87.36c-3.29-7.83-6.54-15.68-9.36-23.68.07-2.34 1-4.53 1.66-6.75 5.11-16.68 9.9-33.45 15-50.14m13.14 12.78c-3.59 12.81-6.65 25.8-9.91 38.71q4.05-.31 8.11-.53c1.12-13 2.35-26.06 3.31-39.1l-1.51.92zm55-14.76c5.44-.66 11.59-.65 16.19 2.74 5.25 4.21 5.43 12 3.55 17.9-5.54 1.94-11.28 3.3-16.89 5 .22-2.69 1.11-5.65-.3-8.15-.75-1.36-2.3-2.67-3.95-2.23a11.91 11.91 0 0 0-6.95 5.21c-1.7 2.7-.68 6.34 1.53 8.42 4.46 4.35 10.87 6.38 14.55 11.6 5 7 5.32 16.44 3.26 24.57-3.93 13.18-18.06 21.3-31.42 20.47-7.44.09-13.58-4.93-18.16-10.3 2.63-5.82 5.82-11.36 8.54-17.13 3.49 3.62 7.6 6.93 12.57 8.16 4.36.73 10.12-1.82 10.32-6.79-.29-3.89-3.2-6.84-6-9.2-5.65-4.64-12.37-8.32-16.45-14.59-3.88-6.23-1.8-14.45 2.49-19.93 6.55-8.53 16.73-13.75 27.16-15.75m55.61.44a159 159 0 0 1 18-1.73 25.7 25.7 0 0 1-.77 6.71c-3.39 12.5-5.8 25.24-8 38-2.05 12.27-4.32 24.51-5.81 36.87-6.21 1-12.49 1.52-18.73 2.25C429 139 431.32 127 433.67 115.1c-3.75.35-7.5.69-11.24 1.07-2.05 11.27-4.14 22.56-6.54 33.76-6 1.83-12.25 2.65-18.35 4 5.54-28.53 11.61-57 14.91-85.91 6.45.41 12.89.86 19.36.83-2.58 11.09-5.22 22.17-7.48 33.33 3.8-.39 7.59-.85 11.37-1.35 2-10.7 3.53-21.51 6.23-32.07zm-292.85 2.63c-1.46 7.64-3.11 15.27-4.19 23 4.15 9.53 7.69 19.32 11.85 28.86 3.79-18.15 7.32-36.37 10.74-54.59-6.14.87-12.24 2-18.4 2.75zm98.92-2.68c-1.49 4.7-3.31 9.29-4.72 14a102.28 102.28 0 0 0 8.3 20.72c4.93-10.3 10.2-20.44 14.93-30.82-6.18-1.24-12.3-2.82-18.51-3.91zm-77.64 21.61a79.32 79.32 0 0 0-9.43 40.53c.34 7.42 2.39 15.6 8.51 20.38 5.23 4 12.54 3.21 18.06.23 9.1-4.86 15.21-13.78 19.33-23-4.48-2-9.08-3.7-13.61-5.54-1.59 4-3.81 8.18-7.74 10.36-1.64 1.09-4.14 1.13-5.17-.79-1.51-3.8-.53-8.05.22-11.92 2.39-9.41 5.65-18.79 11.09-26.9a15.33 15.33 0 0 1 6.24-5.4c-3-5.69-4.58-12-7.69-17.7l-.12-.25a50.47 50.47 0 0 0-19.65 20zm96.26-6.72c-10.38 14-14.71 32-13.68 49.27.49 6.57 2.66 13.52 7.82 17.93s13 3.54 18.7.61c9-4.94 15.11-13.8 19.23-23-4.49-1.91-9.05-3.65-13.57-5.5-1.81 4.14-4.07 8.6-8.35 10.64a3.36 3.36 0 0 1-4.95-1.85c-1.2-4.25 0-8.69 1-12.86 2.88-10.25 6.53-20.66 13.59-28.85a155 155 0 0 1-7-18.26 48.54 48.54 0 0 0-12.76 11.86zM145 94.4c-4.32 19.71-7.4 39.72-12.83 59.19 6.47-.87 12.94-1.88 19.47-2.17 1.7-9.39 3.78-18.73 5.21-28.16-4.16-9.54-7.7-19.33-11.85-28.86zm156.38 32.18c-2.68 8.81-5.37 17.62-8 26.45 5.85-.65 11.71-1.33 17.56-2.13-3.29-7.83-6.54-15.68-9.36-23.68l-.21-.64z"
                    fill="url(#eb)"/>
            </g>
        </g>
    </svg>
</svg>
